<svg width="259" height="48" viewBox="0 0 259 48" fill="none" xmlns="http://www.w3.org/2000/svg">
<rect width="259" height="48" rx="18.9133" fill="#292929"/>
<g clip-path="url(#clip0_2002_8809)">
<path d="M55.5161 23.1878C55.5161 22.3684 55.4497 21.7705 55.306 21.1504H45.959V24.8487H51.4454C51.3349 25.7678 50.7376 27.1519 49.4101 28.082L49.3915 28.2058L52.3469 30.4976L52.5516 30.5181C54.4321 28.7796 55.5161 26.2218 55.5161 23.1878Z" fill="#4285F4"/>
<path d="M45.956 32.9322C48.6439 32.9322 50.9004 32.0463 52.5486 30.5183L49.4071 28.0822C48.5665 28.669 47.4382 29.0787 45.956 29.0787C43.3234 29.0787 41.0889 27.3403 40.2924 24.9375L40.1757 24.9474L37.1027 27.3281L37.0625 27.4399C38.6996 30.6954 42.0623 32.9322 45.956 32.9322Z" fill="#34A853"/>
<path d="M40.2918 24.9363C40.0817 24.3163 39.96 23.6518 39.96 22.9653C39.96 22.2788 40.0817 21.6144 40.2808 20.9944L40.2752 20.8623L37.1637 18.4434L37.0619 18.4918C36.3872 19.8427 36 21.3598 36 22.9653C36 24.5709 36.3872 26.0879 37.0619 27.4388L40.2918 24.9363Z" fill="#FBBC05"/>
<path d="M45.956 16.8534C47.8253 16.8534 49.0863 17.6617 49.8054 18.3372L52.615 15.5911C50.8894 13.9855 48.6439 13 45.956 13C42.0623 13 38.6996 15.2367 37.0625 18.4921L40.2814 20.9947C41.0889 18.5918 43.3234 16.8534 45.956 16.8534Z" fill="#EB4335"/>
</g>
<path d="M72.6245 30.4014C71.8671 30.4014 71.1551 30.252 70.4885 29.9534C69.8218 29.6494 69.2351 29.2307 68.7285 28.6974C68.2271 28.164 67.8325 27.548 67.5445 26.8494C67.2618 26.1454 67.1205 25.3934 67.1205 24.5934C67.1205 23.788 67.2618 23.036 67.5445 22.3374C67.8325 21.6334 68.2271 21.0174 68.7285 20.4894C69.2351 19.956 69.8218 19.54 70.4885 19.2414C71.1551 18.9374 71.8671 18.7854 72.6245 18.7854C73.5311 18.7854 74.3658 18.996 75.1285 19.4174C75.8911 19.8334 76.5231 20.3907 77.0245 21.0894L75.2805 22.0254C74.9658 21.636 74.5738 21.324 74.1045 21.0894C73.6405 20.8547 73.1471 20.7374 72.6245 20.7374C72.1338 20.7374 71.6725 20.8387 71.2405 21.0414C70.8085 21.2387 70.4298 21.516 70.1045 21.8734C69.7791 22.2254 69.5258 22.636 69.3445 23.1054C69.1631 23.5694 69.0725 24.0654 69.0725 24.5934C69.0725 25.1267 69.1631 25.6254 69.3445 26.0894C69.5311 26.5534 69.7871 26.964 70.1125 27.3214C70.4378 27.6734 70.8138 27.9507 71.2405 28.1534C71.6725 28.3507 72.1338 28.4494 72.6245 28.4494C73.1578 28.4494 73.6538 28.332 74.1125 28.0974C74.5765 27.8574 74.9658 27.5427 75.2805 27.1534L77.0245 28.0974C76.5231 28.7907 75.8911 29.348 75.1285 29.7694C74.3658 30.1907 73.5311 30.4014 72.6245 30.4014ZM81.6323 30.4014C80.8963 30.4014 80.2243 30.212 79.6163 29.8334C79.0137 29.4547 78.531 28.948 78.1683 28.3134C77.811 27.6734 77.6323 26.9667 77.6323 26.1934C77.6323 25.6067 77.7363 25.06 77.9443 24.5534C78.1523 24.0414 78.4377 23.5934 78.8003 23.2094C79.1683 22.82 79.595 22.516 80.0803 22.2974C80.5657 22.0787 81.083 21.9694 81.6323 21.9694C82.3683 21.9694 83.0377 22.1587 83.6403 22.5374C84.2483 22.916 84.731 23.4254 85.0883 24.0654C85.451 24.7054 85.6323 25.4147 85.6323 26.1934C85.6323 26.7747 85.5283 27.3187 85.3203 27.8254C85.1123 28.332 84.8243 28.78 84.4563 29.1694C84.0937 29.5534 83.6697 29.8547 83.1843 30.0734C82.7043 30.292 82.187 30.4014 81.6323 30.4014ZM81.6323 28.4494C82.0217 28.4494 82.371 28.3454 82.6803 28.1374C82.9897 27.9294 83.2323 27.6547 83.4083 27.3134C83.5897 26.972 83.6803 26.5987 83.6803 26.1934C83.6803 25.7774 83.587 25.3987 83.4003 25.0574C83.219 24.7107 82.971 24.436 82.6563 24.2334C82.347 24.0254 82.0057 23.9214 81.6323 23.9214C81.2483 23.9214 80.9017 24.0254 80.5923 24.2334C80.283 24.4414 80.0377 24.7187 79.8563 25.0654C79.675 25.412 79.5843 25.788 79.5843 26.1934C79.5843 26.6147 79.6777 26.996 79.8643 27.3374C80.051 27.6787 80.299 27.9507 80.6083 28.1534C80.923 28.3507 81.2643 28.4494 81.6323 28.4494ZM94.206 25.1374V30.1934H92.254V25.6494C92.254 25.3347 92.1766 25.0494 92.022 24.7934C91.8673 24.532 91.6593 24.3267 91.398 24.1774C91.142 24.0227 90.8566 23.9454 90.542 23.9454C90.2273 23.9454 89.9393 24.0227 89.678 24.1774C89.422 24.3267 89.2166 24.532 89.062 24.7934C88.9126 25.0494 88.838 25.3347 88.838 25.6494V30.1934H86.886L86.878 22.1934H88.83L88.838 22.9054C89.11 22.6174 89.4353 22.3907 89.814 22.2254C90.1926 22.0547 90.6006 21.9694 91.038 21.9694C91.6193 21.9694 92.15 22.1134 92.63 22.4014C93.11 22.684 93.4913 23.0654 93.774 23.5454C94.062 24.02 94.206 24.5507 94.206 25.1374ZM100.088 24.1454H98.5358V30.1934H96.5838V24.1454H95.3998V22.1934H96.5838V19.6814H98.5358V22.1934H100.088V24.1454ZM101.409 22.1934H103.361V30.1934H101.409V22.1934ZM102.401 21.1614C102.113 21.1614 101.871 21.068 101.673 20.8814C101.476 20.6894 101.377 20.4494 101.377 20.1614C101.377 19.8787 101.476 19.6414 101.673 19.4494C101.871 19.2574 102.111 19.1614 102.393 19.1614C102.676 19.1614 102.913 19.2574 103.105 19.4494C103.303 19.6414 103.401 19.8787 103.401 20.1614C103.401 20.4494 103.305 20.6894 103.113 20.8814C102.921 21.068 102.684 21.1614 102.401 21.1614ZM112.55 25.1374V30.1934H110.598V25.6494C110.598 25.3347 110.52 25.0494 110.366 24.7934C110.211 24.532 110.003 24.3267 109.742 24.1774C109.486 24.0227 109.2 23.9454 108.886 23.9454C108.571 23.9454 108.283 24.0227 108.022 24.1774C107.766 24.3267 107.56 24.532 107.406 24.7934C107.256 25.0494 107.182 25.3347 107.182 25.6494V30.1934H105.23L105.222 22.1934H107.174L107.182 22.9054C107.454 22.6174 107.779 22.3907 108.158 22.2254C108.536 22.0547 108.944 21.9694 109.382 21.9694C109.963 21.9694 110.494 22.1134 110.974 22.4014C111.454 22.684 111.835 23.0654 112.118 23.5454C112.406 24.02 112.55 24.5507 112.55 25.1374ZM113.824 27.2334V22.1934H115.776V26.7214C115.776 27.036 115.853 27.324 116.008 27.5854C116.162 27.8414 116.368 28.0467 116.624 28.2014C116.885 28.3507 117.17 28.4254 117.48 28.4254C117.8 28.4254 118.088 28.3507 118.344 28.2014C118.6 28.0467 118.805 27.8414 118.96 27.5854C119.114 27.324 119.192 27.036 119.192 26.7214V22.1934H121.144L121.152 30.1934H119.2L119.192 29.4654C118.914 29.7534 118.586 29.9827 118.208 30.1534C117.829 30.3187 117.424 30.4014 116.992 30.4014C116.41 30.4014 115.88 30.26 115.4 29.9774C114.92 29.6894 114.536 29.308 114.248 28.8334C113.965 28.3534 113.824 27.82 113.824 27.2334ZM126.148 30.4014C125.412 30.4014 124.74 30.212 124.132 29.8334C123.529 29.4547 123.047 28.9454 122.684 28.3054C122.327 27.6654 122.148 26.9587 122.148 26.1854C122.148 25.604 122.252 25.06 122.46 24.5534C122.668 24.0414 122.953 23.5934 123.316 23.2094C123.684 22.82 124.111 22.516 124.596 22.2974C125.081 22.0787 125.599 21.9694 126.148 21.9694C126.772 21.9694 127.343 22.1027 127.86 22.3694C128.383 22.6307 128.825 22.9907 129.188 23.4494C129.551 23.908 129.815 24.4307 129.98 25.0174C130.145 25.604 130.183 26.2174 130.092 26.8574H124.244C124.319 27.156 124.441 27.4254 124.612 27.6654C124.783 27.9 124.999 28.0894 125.26 28.2334C125.521 28.372 125.817 28.444 126.148 28.4494C126.489 28.4547 126.799 28.3747 127.076 28.2094C127.359 28.0387 127.593 27.8094 127.78 27.5214L129.772 27.9854C129.447 28.6947 128.961 29.276 128.316 29.7294C127.671 30.1774 126.948 30.4014 126.148 30.4014ZM124.18 25.3934H128.116C128.057 25.0734 127.932 24.7854 127.74 24.5294C127.553 24.268 127.321 24.06 127.044 23.9054C126.767 23.7507 126.468 23.6734 126.148 23.6734C125.828 23.6734 125.532 23.7507 125.26 23.9054C124.988 24.0547 124.756 24.26 124.564 24.5214C124.377 24.7774 124.249 25.068 124.18 25.3934ZM139.553 30.1934H137.617L134.945 22.1934H136.857L138.593 27.3694L140.321 22.1934H142.249L143.977 27.3694L145.713 22.1934H147.625L144.953 30.1934H143.017L141.281 24.9934L139.553 30.1934ZM148.815 22.1934H150.767V30.1934H148.815V22.1934ZM149.807 21.1614C149.519 21.1614 149.277 21.068 149.079 20.8814C148.882 20.6894 148.783 20.4494 148.783 20.1614C148.783 19.8787 148.882 19.6414 149.079 19.4494C149.277 19.2574 149.517 19.1614 149.799 19.1614C150.082 19.1614 150.319 19.2574 150.511 19.4494C150.709 19.6414 150.807 19.8787 150.807 20.1614C150.807 20.4494 150.711 20.6894 150.519 20.8814C150.327 21.068 150.09 21.1614 149.807 21.1614ZM156.978 24.1454H155.426V30.1934H153.474V24.1454H152.29V22.1934H153.474V19.6814H155.426V22.1934H156.978V24.1454ZM165.753 25.1374V30.1934H163.801V25.6494C163.801 25.3347 163.724 25.0494 163.569 24.7934C163.414 24.532 163.206 24.3267 162.945 24.1774C162.689 24.0227 162.404 23.9454 162.089 23.9454C161.774 23.9454 161.486 24.0227 161.225 24.1774C160.969 24.3267 160.764 24.532 160.609 24.7934C160.46 25.0494 160.385 25.3347 160.385 25.6494V30.1934H158.433L158.425 18.1934H160.377L160.385 22.9054C160.657 22.6174 160.982 22.3907 161.361 22.2254C161.74 22.0547 162.148 21.9694 162.585 21.9694C163.166 21.9694 163.697 22.1134 164.177 22.4014C164.657 22.684 165.038 23.0654 165.321 23.5454C165.609 24.02 165.753 24.5507 165.753 25.1374ZM176.374 30.4014C175.596 30.4014 174.87 30.2494 174.198 29.9454C173.532 29.6414 172.95 29.2227 172.454 28.6894C171.958 28.1507 171.569 27.532 171.286 26.8334C171.009 26.1294 170.87 25.3774 170.87 24.5774C170.87 23.7347 171.02 22.9614 171.318 22.2574C171.622 21.5534 172.036 20.9427 172.558 20.4254C173.081 19.908 173.673 19.508 174.334 19.2254C175.001 18.9427 175.694 18.8014 176.414 18.8014C177.22 18.8014 178.001 18.9907 178.758 19.3694C179.521 19.7427 180.193 20.3214 180.774 21.1054L179.03 22.0414C178.673 21.604 178.262 21.2787 177.798 21.0654C177.34 20.8467 176.87 20.7374 176.39 20.7374C175.921 20.7374 175.47 20.8334 175.038 21.0254C174.612 21.2174 174.23 21.4894 173.894 21.8414C173.564 22.188 173.302 22.5987 173.11 23.0734C172.918 23.5427 172.822 24.0574 172.822 24.6174C172.822 25.1454 172.916 25.644 173.102 26.1134C173.289 26.5774 173.545 26.9854 173.87 27.3374C174.201 27.684 174.582 27.956 175.014 28.1534C175.446 28.3507 175.91 28.4494 176.406 28.4494C176.737 28.4494 177.06 28.3987 177.374 28.2974C177.694 28.1907 177.993 28.0387 178.27 27.8414C178.553 27.644 178.804 27.404 179.022 27.1214C179.246 26.8387 179.433 26.5187 179.582 26.1614H177.542V24.4574H181.878C181.9 25.2734 181.772 26.0387 181.494 26.7534C181.217 27.468 180.825 28.1 180.318 28.6494C179.812 29.1987 179.222 29.628 178.55 29.9374C177.878 30.2467 177.153 30.4014 176.374 30.4014ZM186.757 30.4014C186.021 30.4014 185.349 30.212 184.741 29.8334C184.139 29.4547 183.656 28.948 183.293 28.3134C182.936 27.6734 182.757 26.9667 182.757 26.1934C182.757 25.6067 182.861 25.06 183.069 24.5534C183.277 24.0414 183.563 23.5934 183.925 23.2094C184.293 22.82 184.72 22.516 185.205 22.2974C185.691 22.0787 186.208 21.9694 186.757 21.9694C187.493 21.9694 188.163 22.1587 188.765 22.5374C189.373 22.916 189.856 23.4254 190.213 24.0654C190.576 24.7054 190.757 25.4147 190.757 26.1934C190.757 26.7747 190.653 27.3187 190.445 27.8254C190.237 28.332 189.949 28.78 189.581 29.1694C189.219 29.5534 188.795 29.8547 188.309 30.0734C187.829 30.292 187.312 30.4014 186.757 30.4014ZM186.757 28.4494C187.147 28.4494 187.496 28.3454 187.805 28.1374C188.115 27.9294 188.357 27.6547 188.533 27.3134C188.715 26.972 188.805 26.5987 188.805 26.1934C188.805 25.7774 188.712 25.3987 188.525 25.0574C188.344 24.7107 188.096 24.436 187.781 24.2334C187.472 24.0254 187.131 23.9214 186.757 23.9214C186.373 23.9214 186.027 24.0254 185.717 24.2334C185.408 24.4414 185.163 24.7187 184.981 25.0654C184.8 25.412 184.709 25.788 184.709 26.1934C184.709 26.6147 184.803 26.996 184.989 27.3374C185.176 27.6787 185.424 27.9507 185.733 28.1534C186.048 28.3507 186.389 28.4494 186.757 28.4494ZM195.554 30.4014C194.818 30.4014 194.146 30.212 193.538 29.8334C192.936 29.4547 192.453 28.948 192.09 28.3134C191.733 27.6734 191.554 26.9667 191.554 26.1934C191.554 25.6067 191.658 25.06 191.866 24.5534C192.074 24.0414 192.36 23.5934 192.722 23.2094C193.09 22.82 193.517 22.516 194.002 22.2974C194.488 22.0787 195.005 21.9694 195.554 21.9694C196.29 21.9694 196.96 22.1587 197.562 22.5374C198.17 22.916 198.653 23.4254 199.01 24.0654C199.373 24.7054 199.554 25.4147 199.554 26.1934C199.554 26.7747 199.45 27.3187 199.242 27.8254C199.034 28.332 198.746 28.78 198.378 29.1694C198.016 29.5534 197.592 29.8547 197.106 30.0734C196.626 30.292 196.109 30.4014 195.554 30.4014ZM195.554 28.4494C195.944 28.4494 196.293 28.3454 196.602 28.1374C196.912 27.9294 197.154 27.6547 197.33 27.3134C197.512 26.972 197.602 26.5987 197.602 26.1934C197.602 25.7774 197.509 25.3987 197.322 25.0574C197.141 24.7107 196.893 24.436 196.578 24.2334C196.269 24.0254 195.928 23.9214 195.554 23.9214C195.17 23.9214 194.824 24.0254 194.514 24.2334C194.205 24.4414 193.96 24.7187 193.778 25.0654C193.597 25.412 193.506 25.788 193.506 26.1934C193.506 26.6147 193.6 26.996 193.786 27.3374C193.973 27.6787 194.221 27.9507 194.53 28.1534C194.845 28.3507 195.186 28.4494 195.554 28.4494ZM206.767 22.1934H208.719V30.3454C208.719 30.9214 208.602 31.444 208.367 31.9134C208.132 32.388 207.812 32.7934 207.407 33.1294C207.002 33.4707 206.538 33.732 206.015 33.9134C205.492 34.1 204.943 34.1934 204.367 34.1934C203.807 34.1934 203.268 34.0787 202.751 33.8494C202.234 33.62 201.775 33.3054 201.375 32.9054C200.98 32.5107 200.679 32.06 200.471 31.5534L202.255 30.7454C202.362 31.0387 202.522 31.2947 202.735 31.5134C202.954 31.7374 203.204 31.9107 203.487 32.0334C203.77 32.1614 204.063 32.2254 204.367 32.2254C204.676 32.2254 204.972 32.1827 205.255 32.0974C205.543 32.012 205.802 31.8867 206.031 31.7214C206.26 31.5614 206.439 31.364 206.567 31.1294C206.7 30.9 206.767 30.6387 206.767 30.3454V29.2174C206.516 29.5694 206.202 29.8547 205.823 30.0734C205.444 30.292 205.007 30.4014 204.511 30.4014C203.935 30.4014 203.396 30.292 202.895 30.0734C202.394 29.8547 201.951 29.5534 201.567 29.1694C201.188 28.78 200.89 28.332 200.671 27.8254C200.458 27.3187 200.351 26.7747 200.351 26.1934C200.351 25.612 200.458 25.068 200.671 24.5614C200.89 24.0547 201.188 23.6094 201.567 23.2254C201.951 22.836 202.394 22.532 202.895 22.3134C203.396 22.0947 203.935 21.9854 204.511 21.9854C205.007 21.9854 205.444 22.0947 205.823 22.3134C206.202 22.5267 206.516 22.8094 206.767 23.1614V22.1934ZM204.535 28.5214C204.946 28.5214 205.308 28.4174 205.623 28.2094C205.943 27.996 206.194 27.7134 206.375 27.3614C206.556 27.004 206.647 26.6147 206.647 26.1934C206.647 25.7667 206.554 25.3774 206.367 25.0254C206.186 24.6734 205.935 24.3907 205.615 24.1774C205.3 23.964 204.94 23.8574 204.535 23.8574C204.135 23.8574 203.77 23.964 203.439 24.1774C203.108 24.3854 202.844 24.6654 202.647 25.0174C202.45 25.3694 202.351 25.7614 202.351 26.1934C202.351 26.6254 202.45 27.0174 202.647 27.3694C202.844 27.7214 203.108 28.0014 203.439 28.2094C203.77 28.4174 204.135 28.5214 204.535 28.5214ZM210.644 30.1934V18.1934H212.596V30.1934H210.644ZM217.914 30.4014C217.178 30.4014 216.506 30.212 215.898 29.8334C215.295 29.4547 214.812 28.9454 214.45 28.3054C214.092 27.6654 213.914 26.9587 213.914 26.1854C213.914 25.604 214.018 25.06 214.226 24.5534C214.434 24.0414 214.719 23.5934 215.082 23.2094C215.45 22.82 215.876 22.516 216.362 22.2974C216.847 22.0787 217.364 21.9694 217.914 21.9694C218.538 21.9694 219.108 22.1027 219.626 22.3694C220.148 22.6307 220.591 22.9907 220.954 23.4494C221.316 23.908 221.58 24.4307 221.746 25.0174C221.911 25.604 221.948 26.2174 221.858 26.8574H216.01C216.084 27.156 216.207 27.4254 216.378 27.6654C216.548 27.9 216.764 28.0894 217.026 28.2334C217.287 28.372 217.583 28.444 217.914 28.4494C218.255 28.4547 218.564 28.3747 218.842 28.2094C219.124 28.0387 219.359 27.8094 219.546 27.5214L221.538 27.9854C221.212 28.6947 220.727 29.276 220.082 29.7294C219.436 30.1774 218.714 30.4014 217.914 30.4014ZM215.946 25.3934H219.882C219.823 25.0734 219.698 24.7854 219.506 24.5294C219.319 24.268 219.087 24.06 218.81 23.9054C218.532 23.7507 218.234 23.6734 217.914 23.6734C217.594 23.6734 217.298 23.7507 217.026 23.9054C216.754 24.0547 216.522 24.26 216.33 24.5214C216.143 24.7774 216.015 25.068 215.946 25.3934Z" fill="white"/>
<defs>
<clipPath id="clip0_2002_8809">
<rect width="19.5238" height="20" fill="white" transform="translate(36 13)"/>
</clipPath>
</defs>
</svg>
