<svg width="16" height="16" viewBox="0 0 16 16" fill="none" xmlns="http://www.w3.org/2000/svg">
<path d="M11.2 1.33398H9.46667C7.33333 1.33398 6 2.66732 6 4.80065V7.50065H10.1667C10.44 7.50065 10.6667 7.72732 10.6667 8.00065C10.6667 8.27398 10.44 8.50065 10.1667 8.50065H6V11.2007C6 13.334 7.33333 14.6673 9.46667 14.6673H11.1933C13.3267 14.6673 14.66 13.334 14.66 11.2007V4.80065C14.6667 2.66732 13.3333 1.33398 11.2 1.33398Z" fill="#CBD5E1"/>
<path d="M3.03996 7.49924L4.41996 6.11924C4.51996 6.01925 4.56663 5.89258 4.56663 5.76591C4.56663 5.63924 4.51996 5.50591 4.41996 5.41258C4.22663 5.21924 3.90663 5.21924 3.71329 5.41258L1.47996 7.64591C1.28663 7.83924 1.28663 8.15924 1.47996 8.35258L3.71329 10.5859C3.90663 10.7792 4.22663 10.7792 4.41996 10.5859C4.61329 10.3926 4.61329 10.0726 4.41996 9.87924L3.03996 8.49924H5.99996V7.49924H3.03996Z" fill="#CBD5E1"/>
</svg>
