<svg width="169" height="37" viewBox="0 0 169 37" fill="none" xmlns="http://www.w3.org/2000/svg">
<path d="M53.2769 9.66863V12.8635H47.6727V28H44.4778V12.8635H38.8737V9.66863H53.2769ZM63.7706 14.9062H66.9655V28H63.7706L63.6265 26.3764C63.2687 26.9612 62.7929 27.437 62.1993 27.8036C61.6145 28.1615 60.9205 28.3404 60.1174 28.3404C59.1485 28.3404 58.2406 28.1571 57.3939 27.7905C56.5471 27.4239 55.8008 26.9176 55.1548 26.2716C54.5176 25.6257 54.0157 24.8793 53.649 24.0326C53.2911 23.1858 53.1122 22.278 53.1122 21.3091C53.1122 20.375 53.2824 19.4977 53.6229 18.6772C53.972 17.8566 54.4565 17.1365 55.0763 16.5167C55.696 15.8969 56.4118 15.4125 57.2237 15.0633C58.0355 14.7141 58.9084 14.5395 59.8424 14.5395C60.7066 14.5395 61.4792 14.7316 62.16 15.1157C62.8496 15.4998 63.4345 15.9886 63.9146 16.5822L63.7706 14.9062ZM60.0388 25.2634C60.7197 25.2634 61.322 25.0932 61.8458 24.7527C62.3695 24.4123 62.7798 23.954 63.0766 23.3779C63.3734 22.793 63.5218 22.1514 63.5218 21.4531C63.5218 20.746 63.3734 20.1044 63.0766 19.5283C62.7798 18.9434 62.3652 18.4808 61.8327 18.1403C61.3089 17.7999 60.711 17.6297 60.0388 17.6297C59.3667 17.6297 58.7513 17.8043 58.1926 18.1534C57.6427 18.4939 57.2018 18.9522 56.8701 19.5283C56.5471 20.1044 56.3857 20.746 56.3857 21.4531C56.3857 22.1601 56.5515 22.8017 56.8832 23.3779C57.2149 23.954 57.6558 24.4123 58.2057 24.7527C58.7644 25.0932 59.3754 25.2634 60.0388 25.2634ZM73.4373 28.2357C72.7564 28.192 72.0974 28.0567 71.4601 27.8298C70.8316 27.5941 70.273 27.2755 69.7841 26.8739C69.2953 26.4724 68.9199 25.9923 68.6581 25.4336L71.3554 24.2814C71.4601 24.4559 71.6304 24.6436 71.866 24.8444C72.1017 25.0364 72.3811 25.1979 72.7041 25.3289C73.0358 25.4598 73.398 25.5253 73.7908 25.5253C74.1226 25.5253 74.4368 25.4816 74.7336 25.3943C75.0391 25.2983 75.2835 25.1543 75.4669 24.9622C75.6589 24.7702 75.7549 24.5214 75.7549 24.2159C75.7549 23.8929 75.6414 23.6441 75.4145 23.4695C75.1962 23.2862 74.9169 23.1509 74.5765 23.0636C74.2448 22.9676 73.9218 22.8803 73.6075 22.8017C72.7783 22.6359 72.0057 22.3784 71.2899 22.0292C70.5829 21.68 70.0111 21.2305 69.5746 20.6805C69.1469 20.1219 68.933 19.4497 68.933 18.6641C68.933 17.7999 69.16 17.0536 69.6139 16.425C70.0766 15.7965 70.6745 15.3121 71.4078 14.9716C72.1497 14.6312 72.9485 14.461 73.8039 14.461C74.8427 14.461 75.7942 14.6792 76.6584 15.1157C77.5313 15.5434 78.2209 16.1501 78.7272 16.9357L76.2001 18.4284C76.0779 18.2189 75.9077 18.0269 75.6894 17.8523C75.4712 17.669 75.2224 17.5206 74.9431 17.4071C74.6638 17.2849 74.3713 17.215 74.0658 17.1976C73.673 17.1801 73.3151 17.215 72.9921 17.3023C72.6691 17.3896 72.4073 17.538 72.2065 17.7475C72.0144 17.957 71.9184 18.2364 71.9184 18.5855C71.9184 18.9172 72.0494 19.166 72.3112 19.3319C72.5731 19.489 72.8874 19.6112 73.254 19.6985C73.6294 19.7858 73.9872 19.8818 74.3277 19.9866C75.0959 20.2397 75.816 20.5496 76.4882 20.9162C77.1691 21.2829 77.7146 21.7324 78.1249 22.2649C78.5352 22.7974 78.7316 23.4346 78.7141 24.1766C78.7141 25.0233 78.461 25.7653 77.9547 26.4026C77.4484 27.0311 76.7937 27.5112 75.9906 27.8429C75.1962 28.1746 74.3451 28.3055 73.4373 28.2357ZM92.6478 28H88.9684L85.983 22.8541L84.1499 25.0408V28H80.955V8.35925H84.1499V20.0782L88.484 14.9062H92.6609L88.1697 20.2615L92.6478 28ZM94.9695 28V9.66863H101.647C102.616 9.66863 103.489 9.8694 104.266 10.2709C105.052 10.6638 105.672 11.2312 106.125 11.9731C106.588 12.7064 106.819 13.575 106.819 14.5788C106.819 15.024 106.754 15.4736 106.623 15.9275C106.492 16.3814 106.291 16.7917 106.021 17.1583C105.75 17.5162 105.401 17.7824 104.973 17.957C105.541 18.0967 106.003 18.3498 106.361 18.7165C106.719 19.0831 106.998 19.5152 107.199 20.0128C107.4 20.5016 107.535 21.0035 107.605 21.5186C107.684 22.0248 107.723 22.4962 107.723 22.9327C107.723 23.9016 107.483 24.7658 107.003 25.5253C106.523 26.2847 105.877 26.887 105.065 27.3322C104.262 27.7774 103.371 28 102.394 28H94.9695ZM98.1644 25.2634H102.066C102.59 25.2634 103.061 25.1368 103.48 24.8837C103.899 24.6305 104.236 24.2814 104.489 23.8362C104.742 23.391 104.868 22.8847 104.868 22.3173C104.868 21.8284 104.742 21.3658 104.489 20.9293C104.236 20.4929 103.899 20.1393 103.48 19.8687C103.061 19.5981 102.59 19.4628 102.066 19.4628H98.1644V25.2634ZM98.1644 16.7655H101.281C101.927 16.7655 102.477 16.5647 102.931 16.1632C103.393 15.7616 103.625 15.2291 103.625 14.5657C103.625 13.8587 103.393 13.3262 102.931 12.9683C102.477 12.6017 101.927 12.4183 101.281 12.4183H98.1644V16.7655ZM109.304 23.1553V14.9062H112.499V22.3173C112.499 22.8323 112.626 23.3037 112.879 23.7314C113.132 24.1504 113.468 24.4865 113.887 24.7396C114.315 24.9841 114.782 25.1063 115.288 25.1063C115.812 25.1063 116.283 24.9841 116.702 24.7396C117.121 24.4865 117.457 24.1504 117.71 23.7314C117.964 23.3037 118.09 22.8323 118.09 22.3173V14.9062H121.285L121.298 28H118.103L118.09 26.8085C117.636 27.2798 117.099 27.6552 116.48 27.9345C115.86 28.2051 115.196 28.3404 114.489 28.3404C113.538 28.3404 112.669 28.1091 111.884 27.6465C111.098 27.1751 110.47 26.5509 109.998 25.774C109.536 24.9884 109.304 24.1155 109.304 23.1553ZM133.614 8.35925H136.808V28H133.614V26.3633C133.194 26.9481 132.666 27.4239 132.029 27.7905C131.392 28.1571 130.654 28.3404 129.816 28.3404C128.865 28.3404 127.974 28.1615 127.145 27.8036C126.316 27.4457 125.583 26.9525 124.945 26.324C124.317 25.6868 123.824 24.9535 123.466 24.1242C123.108 23.2949 122.929 22.4046 122.929 21.4531C122.929 20.5016 123.108 19.6112 123.466 18.7819C123.824 17.9527 124.317 17.2238 124.945 16.5953C125.583 15.958 126.316 15.4605 127.145 15.1026C127.974 14.7447 128.865 14.5657 129.816 14.5657C130.654 14.5657 131.392 14.749 132.029 15.1157C132.666 15.4736 133.194 15.9493 133.614 16.5429V8.35925ZM129.856 25.2634C130.536 25.2634 131.139 25.0932 131.663 24.7527C132.186 24.4123 132.597 23.954 132.893 23.3779C133.19 22.793 133.339 22.1514 133.339 21.4531C133.339 20.746 133.19 20.1044 132.893 19.5283C132.597 18.9434 132.182 18.4808 131.649 18.1403C131.126 17.7999 130.528 17.6297 129.856 17.6297C129.183 17.6297 128.568 17.8043 128.009 18.1534C127.459 18.4939 127.019 18.9522 126.687 19.5283C126.364 20.1044 126.202 20.746 126.202 21.4531C126.202 22.1601 126.368 22.8017 126.7 23.3779C127.032 23.954 127.472 24.4123 128.022 24.7527C128.581 25.0932 129.192 25.2634 129.856 25.2634ZM149.648 8.35925H152.843V28H149.648V26.3633C149.229 26.9481 148.701 27.4239 148.064 27.7905C147.427 28.1571 146.689 28.3404 145.851 28.3404C144.9 28.3404 144.009 28.1615 143.18 27.8036C142.351 27.4457 141.617 26.9525 140.98 26.324C140.352 25.6868 139.859 24.9535 139.501 24.1242C139.143 23.2949 138.964 22.4046 138.964 21.4531C138.964 20.5016 139.143 19.6112 139.501 18.7819C139.859 17.9527 140.352 17.2238 140.98 16.5953C141.617 15.958 142.351 15.4605 143.18 15.1026C144.009 14.7447 144.9 14.5657 145.851 14.5657C146.689 14.5657 147.427 14.749 148.064 15.1157C148.701 15.4736 149.229 15.9493 149.648 16.5429V8.35925ZM145.89 25.2634C146.571 25.2634 147.174 25.0932 147.697 24.7527C148.221 24.4123 148.631 23.954 148.928 23.3779C149.225 22.793 149.373 22.1514 149.373 21.4531C149.373 20.746 149.225 20.1044 148.928 19.5283C148.631 18.9434 148.217 18.4808 147.684 18.1403C147.161 17.7999 146.563 17.6297 145.89 17.6297C145.218 17.6297 144.603 17.8043 144.044 18.1534C143.494 18.4939 143.053 18.9522 142.722 19.5283C142.399 20.1044 142.237 20.746 142.237 21.4531C142.237 22.1601 142.403 22.8017 142.735 23.3779C143.066 23.954 143.507 24.4123 144.057 24.7527C144.616 25.0932 145.227 25.2634 145.89 25.2634ZM164.076 14.9062H167.467L160.305 34.5469H156.914L159.284 28L154.57 14.9062H158.066L160.881 23.6267L164.076 14.9062Z" fill="#7B1984"/>
<path d="M10.9108 31.4605H21.8224C24.823 31.4605 27.2781 29.0054 27.2781 26.0047V11.0013C27.2781 8.27346 25.3686 6.09116 22.7771 5.68198C22.2316 4.72722 21.2768 4.18164 20.1856 4.18164H12.5476C11.4564 4.18164 10.5017 4.72722 9.95608 5.68198C7.3646 6.09116 5.45508 8.27346 5.45508 11.0013V26.0047C5.45508 29.0054 7.91017 31.4605 10.9108 31.4605ZM12.2748 7.04592C12.2748 7.04592 12.4112 6.90952 12.5476 6.90952H20.322L20.4584 7.04592V8.00068C20.4584 8.13707 20.322 8.27346 20.1856 8.27346H12.5476C12.4112 8.27346 12.2748 8.13707 12.2748 8.00068V7.04592ZM8.18296 11.0013C8.18296 9.91019 8.72854 9.09183 9.5469 8.54625V8.68265C9.5469 8.81904 9.6833 8.95543 9.6833 9.09183C9.6833 9.09183 9.6833 9.22822 9.81969 9.22822C9.81969 9.36462 9.95608 9.50101 9.95608 9.50101L10.0925 9.6374C10.0925 9.7738 10.2289 9.7738 10.3653 9.91019L10.5017 10.0466L10.7744 10.3194L10.9108 10.4558C11.0472 10.4558 11.0472 10.5922 11.1836 10.5922C11.1836 10.5922 11.32 10.5922 11.32 10.7286C11.4564 10.7286 11.5928 10.865 11.7292 10.865H11.8656C12.1384 11.0013 12.2748 11.0013 12.5476 11.0013H21.004C21.1404 11.0013 21.2768 11.0013 21.4132 10.865C21.4132 10.865 21.5496 10.865 21.5496 10.7286C21.686 10.7286 21.686 10.5922 21.8224 10.5922L21.9588 10.4558C22.0952 10.4558 22.0952 10.3194 22.2316 10.183L22.3679 10.0466L22.6407 9.7738L22.7771 9.6374C22.7771 9.50101 22.9135 9.50101 22.9135 9.36462C22.9135 9.36462 22.9135 9.22822 23.0499 9.22822C23.0499 9.09183 23.1863 8.95543 23.1863 8.81904V8.68265C24.0047 9.09183 24.5503 10.0466 24.5503 11.1377V26.1411C24.5503 27.6414 23.3227 28.869 21.8224 28.869H10.9108C9.41051 28.869 8.18296 27.6414 8.18296 26.1411V11.0013Z" fill="#7B1984"/>
<path d="M12.2761 23.2774H15.0039C15.8223 23.2774 16.3679 22.7318 16.3679 21.9135C16.3679 21.0951 15.8223 20.5495 15.0039 20.5495H12.2761C11.4577 20.5495 10.9121 21.0951 10.9121 21.9135C10.9121 22.7318 11.4577 23.2774 12.2761 23.2774ZM12.2761 17.8216H20.4597C21.2781 17.8216 21.8236 17.2761 21.8236 16.4577C21.8236 15.6393 21.2781 15.0938 20.4597 15.0938H12.2761C11.4577 15.0938 10.9121 15.6393 10.9121 16.4577C10.9121 17.2761 11.4577 17.8216 12.2761 17.8216Z" fill="#7B1984"/>
</svg>
