<svg width="1440" height="1024" viewBox="0 0 1440 1024" fill="none" xmlns="http://www.w3.org/2000/svg">
<rect width="1440" height="1024" fill="#020617"/>
<path d="M962.7 573.688C963.092 573.688 963.41 573.37 963.41 572.978C963.41 572.586 963.092 572.269 962.7 572.269C962.308 572.269 961.99 572.586 961.99 572.978C961.99 573.37 962.308 573.688 962.7 573.688Z" fill="#64748B"/>
<path d="M831.859 737.442C832.251 737.442 832.569 737.124 832.569 736.732C832.569 736.34 832.251 736.022 831.859 736.022C831.467 736.022 831.149 736.34 831.149 736.732C831.149 737.124 831.467 737.442 831.859 737.442Z" fill="#64748B"/>
<path d="M611.197 313.862C611.589 313.862 611.907 313.544 611.907 313.152C611.907 312.76 611.589 312.442 611.197 312.442C610.805 312.442 610.487 312.76 610.487 313.152C610.487 313.544 610.805 313.862 611.197 313.862Z" fill="#64748B"/>
<path d="M966.947 471.09C967.339 471.09 967.657 470.772 967.657 470.38C967.657 469.988 967.339 469.67 966.947 469.67C966.555 469.67 966.237 469.988 966.237 470.38C966.237 470.772 966.555 471.09 966.947 471.09Z" fill="#64748B"/>
<path d="M896.301 654.684C896.693 654.684 897.011 654.366 897.011 653.974C897.011 653.582 896.693 653.264 896.301 653.264C895.909 653.264 895.591 653.582 895.591 653.974C895.591 654.366 895.909 654.684 896.301 654.684Z" fill="#64748B"/>
<path d="M861.956 493.265C862.348 493.265 862.666 492.947 862.666 492.555C862.666 492.163 862.348 491.846 861.956 491.846C861.564 491.846 861.247 492.163 861.247 492.555C861.247 492.947 861.564 493.265 861.956 493.265Z" fill="#64748B"/>
<path d="M919.575 529.808C919.967 529.808 920.285 529.49 920.285 529.098C920.285 528.706 919.967 528.388 919.575 528.388C919.183 528.388 918.865 528.706 918.865 529.098C918.865 529.49 919.183 529.808 919.575 529.808Z" fill="#64748B"/>
<path d="M592.502 700.052C592.894 700.052 593.212 699.735 593.212 699.343C593.212 698.951 592.894 698.633 592.502 698.633C592.11 698.633 591.792 698.951 591.792 699.343C591.792 699.735 592.11 700.052 592.502 700.052Z" fill="#64748B"/>
<path d="M518.135 555.085C518.527 555.085 518.845 554.767 518.845 554.375C518.845 553.983 518.527 553.666 518.135 553.666C517.743 553.666 517.425 553.983 517.425 554.375C517.425 554.767 517.743 555.085 518.135 555.085Z" fill="#64748B"/>
<path d="M822.609 392.098C823.001 392.098 823.319 391.78 823.319 391.388C823.319 390.996 823.001 390.679 822.609 390.679C822.217 390.679 821.899 390.996 821.899 391.388C821.899 391.78 822.217 392.098 822.609 392.098Z" fill="#64748B"/>
<path d="M713.131 270.313C713.523 270.313 713.841 269.995 713.841 269.603C713.841 269.211 713.523 268.894 713.131 268.894C712.739 268.894 712.421 269.211 712.421 269.603C712.421 269.995 712.739 270.313 713.131 270.313Z" fill="#64748B"/>
<path d="M608.953 246.272C609.345 246.272 609.663 245.954 609.663 245.562C609.663 245.17 609.345 244.853 608.953 244.853C608.561 244.853 608.243 245.17 608.243 245.562C608.243 245.954 608.561 246.272 608.953 246.272Z" fill="#64748B"/>
<path d="M714.7 685.17C715.092 685.17 715.409 684.852 715.409 684.46C715.409 684.068 715.092 683.75 714.7 683.75C714.308 683.75 713.99 684.068 713.99 684.46C713.99 684.852 714.308 685.17 714.7 685.17Z" fill="#64748B"/>
<path d="M966.558 667.998C966.95 667.998 967.268 667.68 967.268 667.288C967.268 666.896 966.95 666.578 966.558 666.578C966.166 666.578 965.848 666.896 965.848 667.288C965.848 667.68 966.166 667.998 966.558 667.998Z" fill="#64748B"/>
<path d="M899.312 745.845C899.704 745.845 900.022 745.527 900.022 745.135C900.022 744.743 899.704 744.425 899.312 744.425C898.92 744.425 898.602 744.743 898.602 745.135C898.602 745.527 898.92 745.845 899.312 745.845Z" fill="#64748B"/>
<path d="M637.15 698.908C637.542 698.908 637.86 698.59 637.86 698.198C637.86 697.806 637.542 697.488 637.15 697.488C636.758 697.488 636.44 697.806 636.44 698.198C636.44 698.59 636.758 698.908 637.15 698.908Z" fill="#64748B"/>
<path d="M554.002 753.137C554.394 753.137 554.712 752.82 554.712 752.428C554.712 752.036 554.394 751.718 554.002 751.718C553.61 751.718 553.292 752.036 553.292 752.428C553.292 752.82 553.61 753.137 554.002 753.137Z" fill="#64748B"/>
<path d="M527.672 667.563C528.064 667.563 528.381 667.245 528.381 666.853C528.381 666.461 528.064 666.144 527.672 666.144C527.28 666.144 526.962 666.461 526.962 666.853C526.962 667.245 527.28 667.563 527.672 667.563Z" fill="#64748B"/>
<path d="M589.915 526.041C590.307 526.041 590.625 525.723 590.625 525.331C590.625 524.939 590.307 524.622 589.915 524.622C589.523 524.622 589.205 524.939 589.205 525.331C589.205 525.723 589.523 526.041 589.915 526.041Z" fill="#64748B"/>
<path d="M848.642 545.503C849.034 545.503 849.352 545.185 849.352 544.793C849.352 544.401 849.034 544.083 848.642 544.083C848.25 544.083 847.933 544.401 847.933 544.793C847.933 545.185 848.25 545.503 848.642 545.503Z" fill="#64748B"/>
<path d="M970.29 344.016C970.682 344.016 971 343.698 971 343.306C971 342.914 970.682 342.597 970.29 342.597C969.898 342.597 969.58 342.914 969.58 343.306C969.58 343.698 969.898 344.016 970.29 344.016Z" fill="#64748B"/>
<path d="M775.374 319.975C775.766 319.975 776.084 319.657 776.084 319.265C776.084 318.873 775.766 318.555 775.374 318.555C774.982 318.555 774.665 318.873 774.665 319.265C774.665 319.657 774.982 319.975 775.374 319.975Z" fill="#64748B"/>
<path d="M517.368 260.399C517.76 260.399 518.078 260.081 518.078 259.689C518.078 259.297 517.76 258.979 517.368 258.979C516.976 258.979 516.658 259.297 516.658 259.689C516.658 260.081 516.976 260.399 517.368 260.399Z" fill="#64748B"/>
<path d="M803.571 272.603C803.963 272.603 804.281 272.285 804.281 271.893C804.281 271.501 803.963 271.183 803.571 271.183C803.179 271.183 802.861 271.501 802.861 271.893C802.861 272.285 803.179 272.603 803.571 272.603Z" fill="#64748B"/>
<path d="M963.078 268.024C963.47 268.024 963.788 267.706 963.788 267.314C963.788 266.922 963.47 266.604 963.078 266.604C962.686 266.604 962.368 266.922 962.368 267.314C962.368 267.706 962.686 268.024 963.078 268.024Z" fill="#64748B"/>
<path d="M470.855 421.863C471.247 421.863 471.565 421.546 471.565 421.154C471.565 420.762 471.247 420.444 470.855 420.444C470.463 420.444 470.145 420.762 470.145 421.154C470.145 421.546 470.463 421.863 470.855 421.863Z" fill="#64748B"/>
<path d="M773.806 686.738C774.198 686.738 774.516 686.421 774.516 686.029C774.516 685.637 774.198 685.319 773.806 685.319C773.414 685.319 773.096 685.637 773.096 686.029C773.096 686.421 773.414 686.738 773.806 686.738Z" fill="#64748B"/>
<path d="M847.028 629.83C847.42 629.83 847.738 629.512 847.738 629.12C847.738 628.728 847.42 628.41 847.028 628.41C846.636 628.41 846.318 628.728 846.318 629.12C846.318 629.512 846.636 629.83 847.028 629.83Z" fill="#64748B"/>
<path d="M511.976 471.09C512.368 471.09 512.686 470.772 512.686 470.38C512.686 469.988 512.368 469.67 511.976 469.67C511.584 469.67 511.267 469.988 511.267 470.38C511.267 470.772 511.584 471.09 511.976 471.09Z" fill="#64748B"/>
<path d="M597.459 401.634C597.851 401.634 598.169 401.317 598.169 400.925C598.169 400.533 597.851 400.215 597.459 400.215C597.067 400.215 596.75 400.533 596.75 400.925C596.75 401.317 597.067 401.634 597.459 401.634Z" fill="#64748B"/>
<path d="M532.629 352.739C533.021 352.739 533.339 352.422 533.339 352.03C533.339 351.638 533.021 351.32 532.629 351.32C532.237 351.32 531.919 351.638 531.919 352.03C531.919 352.422 532.237 352.739 532.629 352.739Z" fill="#64748B"/>
<path d="M469.71 319.975C470.102 319.975 470.42 319.657 470.42 319.265C470.42 318.873 470.102 318.555 469.71 318.555C469.318 318.555 469 318.873 469 319.265C469 319.657 469.318 319.975 469.71 319.975Z" fill="#64748B"/>
<path d="M583.767 458.165C584.159 458.165 584.477 457.847 584.477 457.455C584.477 457.063 584.159 456.746 583.767 456.746C583.375 456.746 583.058 457.063 583.058 457.455C583.058 457.847 583.375 458.165 583.767 458.165Z" fill="#64748B"/>
<path d="M482.303 750.424C482.695 750.424 483.012 750.107 483.012 749.715C483.012 749.323 482.695 749.005 482.303 749.005C481.911 749.005 481.593 749.323 481.593 749.715C481.593 750.107 481.911 750.424 482.303 750.424Z" fill="#64748B"/>
<path d="M484.547 648.914C484.939 648.914 485.256 648.596 485.256 648.204C485.256 647.812 484.939 647.494 484.547 647.494C484.155 647.494 483.837 647.812 483.837 648.204C483.837 648.596 484.155 648.914 484.547 648.914Z" fill="#64748B"/>
<path d="M572.319 603.167C572.711 603.167 573.029 602.849 573.029 602.457C573.029 602.065 572.711 601.748 572.319 601.748C571.927 601.748 571.609 602.065 571.609 602.457C571.609 602.849 571.927 603.167 572.319 603.167Z" fill="#64748B"/>
<path d="M694.436 730.573C694.828 730.573 695.146 730.256 695.146 729.864C695.146 729.472 694.828 729.154 694.436 729.154C694.044 729.154 693.727 729.472 693.727 729.864C693.727 730.256 694.044 730.573 694.436 730.573Z" fill="#64748B"/>
<path d="M668.059 650.826C668.451 650.826 668.769 650.508 668.769 650.116C668.769 649.724 668.451 649.406 668.059 649.406C667.667 649.406 667.35 649.724 667.35 650.116C667.35 650.508 667.667 650.826 668.059 650.826Z" fill="#64748B"/>
<path d="M892.145 426.053C892.537 426.053 892.855 425.736 892.855 425.344C892.855 424.952 892.537 424.634 892.145 424.634C891.753 424.634 891.436 424.952 891.436 425.344C891.436 425.736 891.753 426.053 892.145 426.053Z" fill="#64748B"/>
<path d="M948.584 726.807C948.976 726.807 949.294 726.489 949.294 726.097C949.294 725.705 948.976 725.387 948.584 725.387C948.192 725.387 947.875 725.705 947.875 726.097C947.875 726.489 948.192 726.807 948.584 726.807Z" fill="#64748B"/>
<g style="mix-blend-mode:soft-light" opacity="0.5">
<path d="M1186.66 157.33C1186.66 180.71 1167.71 199.66 1144.33 199.66C1120.95 199.66 1102 180.71 1102 157.33C1102 133.95 1120.95 115 1144.33 115C1167.71 115 1186.66 133.95 1186.66 157.33Z" fill="#64748B"/>
</g>
<g style="mix-blend-mode:soft-light" opacity="0.5">
<path d="M1178.07 157.33C1178.07 175.96 1162.96 191.07 1144.33 191.07C1125.7 191.07 1110.59 175.96 1110.59 157.33C1110.59 138.7 1125.7 123.59 1144.33 123.59C1162.96 123.59 1178.07 138.7 1178.07 157.33Z" fill="#64748B"/>
</g>
<path d="M1144.33 184.54C1159.36 184.54 1171.54 172.358 1171.54 157.33C1171.54 142.302 1159.36 130.12 1144.33 130.12C1129.3 130.12 1117.12 142.302 1117.12 157.33C1117.12 172.358 1129.3 184.54 1144.33 184.54Z" fill="#67A7DB"/>
<path d="M1162.06 143.49C1162.06 145.38 1160.53 146.9 1158.64 146.9C1156.75 146.9 1155.23 145.37 1155.23 143.49C1155.23 141.61 1156.76 140.07 1158.64 140.07C1160.52 140.07 1162.06 141.6 1162.06 143.49Z" fill="#5F99C8"/>
<path d="M1159.67 146.16C1157.78 146.16 1156.26 144.63 1156.26 142.75C1156.26 141.84 1156.62 141.02 1157.2 140.41C1156.04 140.96 1155.23 142.13 1155.23 143.49C1155.23 145.38 1156.76 146.9 1158.64 146.9C1159.62 146.9 1160.5 146.48 1161.12 145.82C1160.68 146.03 1160.19 146.15 1159.67 146.15V146.16Z" fill="#5284AC"/>
<path d="M1143.17 163.33C1143.17 165.22 1141.64 166.74 1139.75 166.74C1137.86 166.74 1136.34 165.21 1136.34 163.33C1136.34 161.45 1137.87 159.91 1139.75 159.91C1141.63 159.91 1143.17 161.44 1143.17 163.33Z" fill="#5F99C8"/>
<path d="M1140.78 166C1138.89 166 1137.36 164.47 1137.36 162.59C1137.36 161.68 1137.72 160.86 1138.3 160.25C1137.14 160.8 1136.34 161.97 1136.34 163.33C1136.34 165.22 1137.87 166.74 1139.75 166.74C1140.73 166.74 1141.6 166.32 1142.23 165.66C1141.79 165.87 1141.3 165.99 1140.78 165.99V166Z" fill="#5284AC"/>
<path d="M1135.7 176.08C1135.7 177.34 1134.68 178.36 1133.42 178.36C1132.16 178.36 1131.14 177.34 1131.14 176.08C1131.14 174.82 1132.16 173.8 1133.42 173.8C1134.68 173.8 1135.7 174.82 1135.7 176.08Z" fill="#5F99C8"/>
<path d="M1134.11 177.87C1132.85 177.87 1131.83 176.85 1131.83 175.59C1131.83 174.98 1132.07 174.44 1132.46 174.03C1131.69 174.4 1131.15 175.18 1131.15 176.09C1131.15 177.35 1132.17 178.37 1133.43 178.37C1134.08 178.37 1134.67 178.09 1135.08 177.65C1134.79 177.79 1134.46 177.87 1134.11 177.87Z" fill="#5284AC"/>
<path d="M1164.14 168.52C1164.14 170.41 1162.61 171.94 1160.73 171.94C1158.85 171.94 1157.31 170.41 1157.31 168.52C1157.31 166.63 1158.84 165.1 1160.73 165.1C1162.62 165.1 1164.14 166.63 1164.14 168.52Z" fill="#5F99C8"/>
<path d="M1161.75 171.2C1159.86 171.2 1158.33 169.67 1158.33 167.78C1158.33 166.87 1158.69 166.05 1159.27 165.44C1158.11 165.99 1157.3 167.16 1157.3 168.52C1157.3 170.41 1158.83 171.94 1160.72 171.94C1161.7 171.94 1162.57 171.52 1163.2 170.86C1162.76 171.07 1162.27 171.19 1161.75 171.19V171.2Z" fill="#5284AC"/>
<path d="M1148.74 137.54C1148.74 138.96 1147.59 140.1 1146.18 140.1C1144.77 140.1 1143.61 138.95 1143.61 137.54C1143.61 136.13 1144.76 134.97 1146.18 134.97C1147.6 134.97 1148.74 136.12 1148.74 137.54Z" fill="#5F99C8"/>
<path d="M1146.95 139.55C1145.53 139.55 1144.38 138.4 1144.38 136.99C1144.38 136.31 1144.65 135.69 1145.08 135.23C1144.21 135.64 1143.6 136.52 1143.6 137.54C1143.6 138.96 1144.75 140.1 1146.17 140.1C1146.9 140.1 1147.56 139.79 1148.03 139.29C1147.7 139.45 1147.33 139.54 1146.94 139.54L1146.95 139.55Z" fill="#5284AC"/>
<path d="M1128.24 162.56C1128.24 164.07 1127.01 165.3 1125.5 165.3C1123.99 165.3 1122.76 164.07 1122.76 162.56C1122.76 161.05 1123.99 159.82 1125.5 159.82C1127.01 159.82 1128.24 161.05 1128.24 162.56Z" fill="#5F99C8"/>
<path d="M1126.32 164.7C1124.81 164.7 1123.58 163.47 1123.58 161.96C1123.58 161.23 1123.87 160.57 1124.33 160.08C1123.4 160.52 1122.75 161.46 1122.75 162.55C1122.75 164.06 1123.98 165.29 1125.49 165.29C1126.28 165.29 1126.98 164.96 1127.48 164.43C1127.13 164.6 1126.73 164.7 1126.32 164.7Z" fill="#5284AC"/>
<path d="M1166.69 157.65C1166.69 158.69 1165.84 159.54 1164.8 159.54C1163.76 159.54 1162.91 158.69 1162.91 157.65C1162.91 156.61 1163.76 155.76 1164.8 155.76C1165.84 155.76 1166.69 156.61 1166.69 157.65Z" fill="#5F99C8"/>
<path d="M1165.37 159.12C1164.33 159.12 1163.48 158.27 1163.48 157.23C1163.48 156.73 1163.68 156.27 1164 155.94C1163.36 156.24 1162.91 156.89 1162.91 157.64C1162.91 158.68 1163.76 159.53 1164.8 159.53C1165.34 159.53 1165.83 159.3 1166.17 158.94C1165.93 159.06 1165.66 159.12 1165.37 159.12Z" fill="#5284AC"/>
<path d="M1132.87 143.1C1132.87 144.2 1131.98 145.08 1130.89 145.08C1129.8 145.08 1128.91 144.19 1128.91 143.1C1128.91 142.01 1129.8 141.12 1130.89 141.12C1131.98 141.12 1132.87 142.01 1132.87 143.1Z" fill="#5F99C8"/>
<path d="M1131.48 144.65C1130.38 144.65 1129.5 143.76 1129.5 142.67C1129.5 142.14 1129.71 141.67 1130.04 141.31C1129.37 141.63 1128.9 142.31 1128.9 143.1C1128.9 144.2 1129.79 145.08 1130.88 145.08C1131.45 145.08 1131.96 144.84 1132.32 144.46C1132.06 144.58 1131.78 144.65 1131.48 144.65Z" fill="#5284AC"/>
<path d="M1141.94 149.05C1142.72 149.05 1143.36 148.414 1143.36 147.63C1143.36 146.846 1142.72 146.21 1141.94 146.21C1141.16 146.21 1140.52 146.846 1140.52 147.63C1140.52 148.414 1141.16 149.05 1141.94 149.05Z" fill="#5F99C8"/>
<path d="M1142.36 148.74C1141.58 148.74 1140.94 148.11 1140.94 147.32C1140.94 146.94 1141.09 146.6 1141.33 146.35C1140.85 146.58 1140.51 147.06 1140.51 147.63C1140.51 148.41 1141.14 149.05 1141.93 149.05C1142.34 149.05 1142.7 148.88 1142.96 148.6C1142.78 148.69 1142.57 148.74 1142.36 148.74Z" fill="#5284AC"/>
<path d="M1151.48 179.75C1152.26 179.75 1152.9 179.114 1152.9 178.33C1152.9 177.546 1152.26 176.91 1151.48 176.91C1150.7 176.91 1150.06 177.546 1150.06 178.33C1150.06 179.114 1150.7 179.75 1151.48 179.75Z" fill="#5F99C8"/>
<path d="M1151.9 179.44C1151.12 179.44 1150.48 178.81 1150.48 178.02C1150.48 177.64 1150.63 177.3 1150.87 177.05C1150.39 177.28 1150.05 177.76 1150.05 178.33C1150.05 179.11 1150.68 179.75 1151.47 179.75C1151.88 179.75 1152.24 179.58 1152.5 179.3C1152.32 179.39 1152.11 179.44 1151.9 179.44Z" fill="#5284AC"/>
<path d="M1149.21 170.5C1149.99 170.5 1150.63 169.864 1150.63 169.08C1150.63 168.296 1149.99 167.66 1149.21 167.66C1148.43 167.66 1147.79 168.296 1147.79 169.08C1147.79 169.864 1148.43 170.5 1149.21 170.5Z" fill="#5F99C8"/>
<path d="M1149.64 170.18C1148.86 170.18 1148.22 169.55 1148.22 168.76C1148.22 168.38 1148.37 168.04 1148.61 167.79C1148.13 168.02 1147.79 168.5 1147.79 169.07C1147.79 169.85 1148.42 170.49 1149.21 170.49C1149.62 170.49 1149.98 170.32 1150.24 170.04C1150.06 170.13 1149.86 170.18 1149.64 170.18Z" fill="#5284AC"/>
<path d="M1132.59 154.53C1133.37 154.53 1134.01 153.894 1134.01 153.11C1134.01 152.326 1133.37 151.69 1132.59 151.69C1131.81 151.69 1131.17 152.326 1131.17 153.11C1131.17 153.894 1131.81 154.53 1132.59 154.53Z" fill="#5F99C8"/>
<path d="M1133.01 154.22C1132.23 154.22 1131.59 153.59 1131.59 152.8C1131.59 152.42 1131.74 152.08 1131.98 151.83C1131.5 152.06 1131.16 152.54 1131.16 153.11C1131.16 153.89 1131.79 154.53 1132.58 154.53C1132.99 154.53 1133.35 154.36 1133.61 154.08C1133.43 154.17 1133.22 154.22 1133.01 154.22Z" fill="#5284AC"/>
<path d="M1153.84 155.95C1153.84 157.05 1152.95 157.93 1151.86 157.93C1150.77 157.93 1149.88 157.04 1149.88 155.95C1149.88 154.86 1150.77 153.97 1151.86 153.97C1152.95 153.97 1153.84 154.86 1153.84 155.95Z" fill="#5F99C8"/>
<path d="M1152.45 157.5C1151.36 157.5 1150.47 156.61 1150.47 155.52C1150.47 154.99 1150.68 154.52 1151.01 154.16C1150.34 154.48 1149.87 155.16 1149.87 155.95C1149.87 157.05 1150.76 157.93 1151.85 157.93C1152.42 157.93 1152.93 157.69 1153.29 157.31C1153.03 157.43 1152.75 157.5 1152.45 157.5Z" fill="#5284AC"/>
<path d="M324.868 325.668C321.188 336.088 309.768 341.548 299.348 337.868C288.928 334.188 283.468 322.768 287.148 312.348C290.828 301.928 302.248 296.468 312.668 300.148C323.088 303.828 328.548 315.248 324.868 325.668Z" fill="#DBA767"/>
<path d="M321.688 313.758C321.228 315.068 319.788 315.748 318.488 315.288C317.188 314.828 316.498 313.388 316.958 312.088C317.418 310.778 318.858 310.098 320.158 310.558C321.468 311.018 322.148 312.458 321.688 313.758Z" fill="#C8995F"/>
<path d="M319.378 315.028C318.068 314.568 317.388 313.128 317.848 311.828C318.068 311.198 318.518 310.718 319.068 310.438C318.128 310.538 317.288 311.148 316.948 312.098C316.488 313.408 317.168 314.838 318.478 315.298C319.158 315.538 319.868 315.468 320.458 315.158C320.098 315.198 319.728 315.158 319.368 315.038L319.378 315.028Z" fill="#AC8352"/>
<path d="M303.728 322.888C303.268 324.198 301.828 324.878 300.528 324.418C299.228 323.958 298.538 322.518 298.998 321.218C299.458 319.908 300.898 319.228 302.198 319.688C303.508 320.148 304.188 321.588 303.728 322.888Z" fill="#C8995F"/>
<path d="M301.428 324.148C300.118 323.688 299.438 322.248 299.898 320.948C300.118 320.318 300.568 319.838 301.118 319.558C300.178 319.658 299.338 320.268 298.998 321.218C298.538 322.528 299.218 323.958 300.528 324.418C301.208 324.658 301.918 324.588 302.508 324.278C302.148 324.318 301.778 324.278 301.418 324.158L301.428 324.148Z" fill="#AC8352"/>
<path d="M295.438 329.898C295.128 330.768 294.168 331.228 293.298 330.918C292.428 330.608 291.968 329.648 292.278 328.778C292.588 327.908 293.548 327.448 294.418 327.758C295.288 328.068 295.748 329.028 295.438 329.898Z" fill="#C8995F"/>
<path d="M293.898 330.748C293.028 330.438 292.568 329.478 292.878 328.608C293.028 328.188 293.328 327.868 293.698 327.678C293.068 327.738 292.508 328.148 292.288 328.788C291.978 329.658 292.438 330.618 293.308 330.928C293.758 331.088 294.238 331.038 294.628 330.838C294.388 330.858 294.148 330.838 293.898 330.758V330.748Z" fill="#AC8352"/>
<path d="M316.998 331.618C316.538 332.928 315.098 333.608 313.798 333.148C312.488 332.688 311.808 331.248 312.268 329.948C312.728 328.638 314.168 327.958 315.468 328.418C316.778 328.878 317.458 330.318 316.998 331.618Z" fill="#C8995F"/>
<path d="M314.688 332.888C313.378 332.428 312.698 330.988 313.158 329.688C313.378 329.058 313.828 328.578 314.378 328.298C313.438 328.398 312.598 329.008 312.258 329.958C311.798 331.268 312.478 332.698 313.788 333.158C314.468 333.398 315.178 333.318 315.768 333.018C315.408 333.058 315.038 333.018 314.678 332.898L314.688 332.888Z" fill="#AC8352"/>
<path d="M313.908 306.368C313.558 307.348 312.488 307.868 311.498 307.518C310.518 307.168 309.998 306.098 310.348 305.108C310.698 304.128 311.768 303.608 312.758 303.958C313.738 304.308 314.258 305.378 313.908 306.368Z" fill="#C8995F"/>
<path d="M312.168 307.318C311.188 306.968 310.668 305.898 311.018 304.908C311.188 304.438 311.518 304.078 311.938 303.858C311.238 303.928 310.598 304.388 310.348 305.098C309.998 306.078 310.518 307.158 311.498 307.508C312.008 307.688 312.538 307.628 312.988 307.398C312.718 307.428 312.448 307.398 312.168 307.308V307.318Z" fill="#AC8352"/>
<path d="M293.577 318.698C293.207 319.748 292.057 320.298 291.007 319.928C289.957 319.558 289.407 318.408 289.777 317.358C290.147 316.308 291.297 315.758 292.347 316.128C293.397 316.498 293.947 317.648 293.577 318.698Z" fill="#C8995F"/>
<path d="M291.718 319.718C290.668 319.348 290.118 318.198 290.488 317.148C290.668 316.648 291.028 316.258 291.468 316.028C290.718 316.108 290.038 316.598 289.768 317.358C289.398 318.408 289.948 319.558 290.998 319.928C291.538 320.118 292.108 320.058 292.588 319.818C292.298 319.848 292.008 319.818 291.718 319.718Z" fill="#AC8352"/>
<path d="M321.428 324.698C321.168 325.418 320.378 325.798 319.658 325.548C318.938 325.288 318.558 324.498 318.808 323.778C319.068 323.058 319.858 322.678 320.578 322.928C321.298 323.188 321.678 323.978 321.428 324.698Z" fill="#C8995F"/>
<path d="M320.148 325.398C319.428 325.148 319.048 324.348 319.298 323.628C319.418 323.278 319.668 323.018 319.978 322.858C319.458 322.908 318.988 323.248 318.808 323.778C318.558 324.498 318.928 325.298 319.658 325.548C320.028 325.678 320.428 325.638 320.758 325.468C320.558 325.488 320.358 325.468 320.158 325.398H320.148Z" fill="#AC8352"/>
<path d="M301.548 306.338C301.278 307.098 300.448 307.498 299.688 307.228C298.928 306.958 298.528 306.128 298.798 305.368C299.068 304.608 299.898 304.208 300.658 304.478C301.418 304.748 301.818 305.578 301.548 306.338Z" fill="#C8995F"/>
<path d="M300.208 307.078C299.448 306.808 299.048 305.978 299.318 305.218C299.448 304.848 299.708 304.578 300.028 304.408C299.488 304.468 298.988 304.818 298.798 305.368C298.528 306.128 298.928 306.958 299.688 307.228C300.078 307.368 300.498 307.328 300.838 307.148C300.628 307.168 300.418 307.148 300.208 307.078Z" fill="#AC8352"/>
<path d="M307.708 312.048C307.518 312.588 306.918 312.878 306.378 312.688C305.838 312.498 305.548 311.898 305.738 311.358C305.928 310.818 306.528 310.528 307.068 310.718C307.608 310.908 307.898 311.508 307.708 312.048Z" fill="#C8995F"/>
<path d="M306.748 312.578C306.208 312.388 305.918 311.788 306.108 311.248C306.198 310.988 306.388 310.788 306.618 310.668C306.228 310.708 305.878 310.958 305.738 311.358C305.548 311.898 305.828 312.498 306.378 312.688C306.658 312.788 306.958 312.758 307.198 312.628C307.048 312.648 306.898 312.628 306.748 312.578Z" fill="#AC8352"/>
<path d="M306.808 335.668C306.618 336.208 306.018 336.498 305.478 336.308C304.938 336.118 304.648 335.518 304.838 334.978C305.028 334.438 305.628 334.148 306.168 334.338C306.708 334.528 306.998 335.128 306.808 335.668Z" fill="#C8995F"/>
<path d="M305.848 336.188C305.308 335.998 305.018 335.398 305.208 334.858C305.298 334.598 305.488 334.398 305.718 334.278C305.328 334.318 304.978 334.568 304.838 334.968C304.648 335.508 304.928 336.108 305.478 336.298C305.758 336.398 306.058 336.368 306.298 336.238C306.148 336.258 305.998 336.238 305.848 336.188Z" fill="#AC8352"/>
<path d="M307.498 328.698C307.308 329.238 306.708 329.528 306.168 329.338C305.628 329.148 305.338 328.548 305.528 328.008C305.718 327.468 306.318 327.178 306.858 327.368C307.398 327.558 307.688 328.158 307.498 328.698Z" fill="#C8995F"/>
<path d="M306.538 329.218C305.998 329.028 305.708 328.428 305.898 327.888C305.988 327.628 306.178 327.428 306.408 327.308C306.018 327.348 305.668 327.598 305.528 327.998C305.338 328.538 305.618 329.138 306.168 329.328C306.448 329.428 306.748 329.398 306.988 329.268C306.838 329.288 306.688 329.268 306.538 329.218Z" fill="#AC8352"/>
<path d="M299.878 313.558C299.688 314.098 299.088 314.388 298.548 314.198C298.008 314.008 297.718 313.408 297.908 312.868C298.098 312.328 298.698 312.038 299.238 312.228C299.778 312.418 300.068 313.018 299.878 313.558Z" fill="#C8995F"/>
<path d="M298.918 314.088C298.378 313.898 298.088 313.298 298.278 312.758C298.368 312.498 298.558 312.298 298.788 312.178C298.398 312.218 298.048 312.468 297.908 312.868C297.718 313.408 297.998 314.008 298.548 314.198C298.828 314.298 299.128 314.268 299.368 314.138C299.218 314.158 299.068 314.138 298.918 314.088Z" fill="#AC8352"/>
<path d="M312.938 320.378C312.668 321.138 311.838 321.538 311.078 321.268C310.318 320.998 309.918 320.168 310.188 319.408C310.458 318.648 311.288 318.248 312.048 318.518C312.808 318.788 313.208 319.618 312.938 320.378Z" fill="#C8995F"/>
<path d="M311.598 321.118C310.838 320.848 310.438 320.018 310.708 319.258C310.838 318.888 311.098 318.618 311.418 318.448C310.878 318.508 310.378 318.858 310.188 319.408C309.918 320.168 310.318 320.998 311.078 321.268C311.468 321.408 311.888 321.368 312.228 321.188C312.018 321.208 311.808 321.188 311.598 321.118Z" fill="#AC8352"/>
<path d="M1054.09 409.269C1051.43 416.799 1043.18 420.749 1035.65 418.089C1028.12 415.429 1024.17 407.179 1026.83 399.649C1029.49 392.119 1037.74 388.169 1045.27 390.829C1052.8 393.489 1056.75 401.739 1054.09 409.269Z" fill="#FFEACF"/>
<path d="M1051.79 400.659C1051.46 401.609 1050.42 402.099 1049.48 401.769C1048.53 401.439 1048.04 400.399 1048.37 399.459C1048.7 398.509 1049.74 398.019 1050.69 398.349C1051.63 398.679 1052.13 399.719 1051.8 400.669L1051.79 400.659Z" fill="#EFDBC3"/>
<path d="M1050.12 401.57C1049.17 401.24 1048.68 400.2 1049.01 399.26C1049.17 398.8 1049.5 398.46 1049.89 398.25C1049.21 398.32 1048.6 398.76 1048.36 399.45C1048.03 400.39 1048.52 401.43 1049.47 401.76C1049.96 401.93 1050.47 401.88 1050.9 401.66C1050.64 401.69 1050.38 401.66 1050.11 401.57H1050.12Z" fill="#D6C5B0"/>
<path d="M1038.82 407.249C1038.49 408.189 1037.45 408.689 1036.51 408.359C1035.56 408.029 1035.07 406.989 1035.4 406.039C1035.73 405.099 1036.77 404.599 1037.71 404.929C1038.66 405.259 1039.15 406.299 1038.82 407.239V407.249Z" fill="#EFDBC3"/>
<path d="M1037.15 408.169C1036.2 407.839 1035.71 406.799 1036.04 405.859C1036.2 405.399 1036.53 405.059 1036.92 404.849C1036.24 404.919 1035.63 405.359 1035.39 406.049C1035.06 406.999 1035.55 408.029 1036.5 408.369C1036.99 408.539 1037.5 408.489 1037.93 408.269C1037.67 408.299 1037.41 408.269 1037.14 408.179L1037.15 408.169Z" fill="#D6C5B0"/>
<path d="M1032.83 412.319C1032.61 412.949 1031.92 413.279 1031.28 413.059C1030.65 412.839 1030.32 412.139 1030.54 411.509C1030.76 410.879 1031.46 410.549 1032.09 410.769C1032.72 410.989 1033.05 411.679 1032.83 412.319Z" fill="#EFDBC3"/>
<path d="M1031.71 412.939C1031.08 412.719 1030.75 412.019 1030.97 411.389C1031.08 411.089 1031.3 410.849 1031.56 410.719C1031.11 410.769 1030.7 411.059 1030.54 411.519C1030.32 412.149 1030.65 412.839 1031.28 413.069C1031.61 413.189 1031.95 413.149 1032.24 412.999C1032.07 413.019 1031.89 412.999 1031.71 412.939Z" fill="#D6C5B0"/>
<path d="M1048.41 413.559C1048.08 414.499 1047.04 414.999 1046.09 414.669C1045.15 414.339 1044.65 413.299 1044.98 412.359C1045.31 411.419 1046.35 410.919 1047.29 411.249C1048.24 411.579 1048.73 412.619 1048.4 413.569L1048.41 413.559Z" fill="#EFDBC3"/>
<path d="M1046.74 414.479C1045.79 414.149 1045.3 413.109 1045.63 412.169C1045.79 411.719 1046.12 411.369 1046.51 411.159C1045.83 411.229 1045.22 411.669 1044.98 412.359C1044.65 413.309 1045.14 414.339 1046.09 414.669C1046.58 414.839 1047.09 414.789 1047.52 414.569C1047.26 414.599 1047 414.569 1046.73 414.479H1046.74Z" fill="#D6C5B0"/>
<path d="M1046.17 395.32C1045.92 396.03 1045.14 396.4 1044.43 396.15C1043.72 395.9 1043.35 395.12 1043.6 394.41C1043.85 393.7 1044.63 393.33 1045.34 393.58C1046.05 393.83 1046.42 394.61 1046.17 395.32Z" fill="#EFDBC3"/>
<path d="M1044.92 396.01C1044.21 395.76 1043.84 394.98 1044.09 394.27C1044.21 393.93 1044.46 393.67 1044.75 393.51C1044.24 393.56 1043.78 393.89 1043.6 394.41C1043.35 395.12 1043.72 395.9 1044.43 396.15C1044.8 396.28 1045.18 396.24 1045.51 396.07C1045.32 396.09 1045.12 396.07 1044.92 396V396.01Z" fill="#D6C5B0"/>
<path d="M1031.48 404.229C1031.21 404.989 1030.38 405.389 1029.62 405.119C1028.86 404.849 1028.46 404.02 1028.73 403.26C1029 402.5 1029.83 402.099 1030.59 402.369C1031.35 402.639 1031.75 403.469 1031.48 404.229Z" fill="#EFDBC3"/>
<path d="M1030.14 404.96C1029.38 404.69 1028.98 403.86 1029.25 403.1C1029.38 402.74 1029.64 402.46 1029.96 402.29C1029.42 402.35 1028.93 402.7 1028.73 403.25C1028.46 404.01 1028.86 404.84 1029.62 405.11C1030.01 405.25 1030.42 405.21 1030.77 405.03C1030.56 405.05 1030.35 405.03 1030.14 404.96Z" fill="#D6C5B0"/>
<path d="M1051.61 408.57C1051.43 409.09 1050.85 409.37 1050.33 409.18C1049.81 409 1049.53 408.42 1049.72 407.9C1049.9 407.38 1050.48 407.1 1051 407.29C1051.52 407.47 1051.8 408.05 1051.61 408.57Z" fill="#EFDBC3"/>
<path d="M1050.68 409.07C1050.16 408.89 1049.88 408.31 1050.07 407.79C1050.16 407.54 1050.34 407.349 1050.56 407.229C1050.19 407.269 1049.85 407.509 1049.71 407.889C1049.53 408.409 1049.8 408.989 1050.32 409.169C1050.59 409.269 1050.87 409.239 1051.11 409.109C1050.97 409.119 1050.82 409.109 1050.68 409.059V409.07Z" fill="#D6C5B0"/>
<path d="M1037.24 395.299C1037.05 395.849 1036.44 396.139 1035.9 395.939C1035.35 395.749 1035.06 395.139 1035.26 394.599C1035.45 394.049 1036.06 393.759 1036.6 393.959C1037.15 394.149 1037.44 394.759 1037.24 395.299Z" fill="#EFDBC3"/>
<path d="M1036.27 395.829C1035.72 395.639 1035.43 395.029 1035.63 394.489C1035.72 394.229 1035.91 394.019 1036.14 393.909C1035.75 393.949 1035.39 394.209 1035.25 394.599C1035.06 395.149 1035.34 395.749 1035.89 395.939C1036.17 396.039 1036.47 396.009 1036.72 395.879C1036.57 395.899 1036.42 395.879 1036.26 395.829H1036.27Z" fill="#D6C5B0"/>
<path d="M1041.69 399.419C1041.55 399.809 1041.12 400.019 1040.73 399.879C1040.34 399.739 1040.13 399.309 1040.27 398.919C1040.41 398.529 1040.84 398.319 1041.23 398.459C1041.62 398.599 1041.83 399.029 1041.69 399.419Z" fill="#EFDBC3"/>
<path d="M1041 399.799C1040.61 399.659 1040.4 399.229 1040.54 398.839C1040.61 398.649 1040.74 398.509 1040.91 398.419C1040.63 398.449 1040.38 398.629 1040.28 398.919C1040.14 399.309 1040.35 399.739 1040.74 399.879C1040.94 399.949 1041.16 399.929 1041.33 399.839C1041.22 399.849 1041.11 399.839 1041 399.799Z" fill="#D6C5B0"/>
<path d="M1041.04 416.489C1040.9 416.879 1040.47 417.089 1040.08 416.949C1039.69 416.809 1039.48 416.379 1039.62 415.989C1039.76 415.599 1040.19 415.389 1040.58 415.529C1040.97 415.669 1041.18 416.099 1041.04 416.489Z" fill="#EFDBC3"/>
<path d="M1040.35 416.869C1039.96 416.729 1039.75 416.299 1039.89 415.909C1039.96 415.719 1040.09 415.579 1040.26 415.489C1039.98 415.519 1039.72 415.699 1039.63 415.989C1039.49 416.379 1039.7 416.809 1040.09 416.949C1040.29 417.019 1040.51 416.999 1040.68 416.909C1040.57 416.919 1040.46 416.909 1040.35 416.869Z" fill="#D6C5B0"/>
<path d="M1041.54 411.449C1041.4 411.839 1040.97 412.049 1040.58 411.909C1040.19 411.769 1039.98 411.339 1040.12 410.949C1040.26 410.559 1040.69 410.349 1041.08 410.489C1041.47 410.629 1041.68 411.059 1041.54 411.449Z" fill="#EFDBC3"/>
<path d="M1040.85 411.829C1040.46 411.689 1040.25 411.259 1040.39 410.869C1040.46 410.679 1040.59 410.539 1040.76 410.449C1040.48 410.479 1040.23 410.659 1040.13 410.949C1039.99 411.339 1040.2 411.769 1040.59 411.909C1040.79 411.979 1041.01 411.959 1041.18 411.869C1041.07 411.879 1040.96 411.869 1040.85 411.829Z" fill="#D6C5B0"/>
<path d="M1036.04 400.509C1035.9 400.899 1035.47 401.109 1035.08 400.969C1034.69 400.829 1034.48 400.399 1034.62 400.009C1034.76 399.619 1035.19 399.409 1035.58 399.549C1035.97 399.689 1036.18 400.119 1036.04 400.509Z" fill="#EFDBC3"/>
<path d="M1035.34 400.9C1034.95 400.76 1034.74 400.33 1034.88 399.94C1034.95 399.75 1035.08 399.61 1035.25 399.52C1034.97 399.55 1034.72 399.73 1034.62 400.02C1034.48 400.41 1034.69 400.84 1035.08 400.98C1035.28 401.05 1035.5 401.03 1035.67 400.94C1035.56 400.95 1035.45 400.94 1035.34 400.9Z" fill="#D6C5B0"/>
<path d="M1045.47 405.439C1045.28 405.989 1044.67 406.279 1044.13 406.079C1043.58 405.889 1043.29 405.279 1043.49 404.739C1043.68 404.189 1044.28 403.899 1044.83 404.099C1045.38 404.289 1045.67 404.899 1045.47 405.439Z" fill="#EFDBC3"/>
<path d="M1044.5 405.969C1043.95 405.779 1043.66 405.169 1043.86 404.629C1043.95 404.369 1044.14 404.159 1044.37 404.049C1043.98 404.089 1043.62 404.349 1043.48 404.749C1043.29 405.299 1043.57 405.899 1044.12 406.089C1044.41 406.189 1044.7 406.159 1044.95 406.029C1044.8 406.049 1044.65 406.029 1044.49 405.979L1044.5 405.969Z" fill="#D6C5B0"/>
<path d="M340.847 822.664C333.097 829.414 321.327 828.614 314.577 820.854C307.827 813.104 308.637 801.334 316.387 794.584C324.137 787.824 335.907 788.634 342.657 796.394C349.407 804.144 348.597 815.914 340.847 822.664Z" fill="#58FFFB"/>
<path d="M343.727 811.554C342.757 812.404 341.277 812.304 340.427 811.324C339.577 810.354 339.677 808.874 340.657 808.024C341.627 807.174 343.107 807.274 343.957 808.254C344.807 809.224 344.707 810.704 343.727 811.554Z" fill="#54EFE5"/>
<path d="M341.277 811.524C340.427 810.554 340.527 809.074 341.507 808.224C341.977 807.814 342.557 807.634 343.137 807.654C342.337 807.304 341.367 807.414 340.667 808.024C339.697 808.874 339.597 810.344 340.437 811.324C340.877 811.824 341.487 812.094 342.107 812.114C341.797 811.984 341.517 811.784 341.287 811.514L341.277 811.524Z" fill="#4CD6CF"/>
<path d="M324.997 810.724C324.027 811.574 322.547 811.474 321.697 810.494C320.847 809.524 320.947 808.044 321.927 807.194C322.897 806.344 324.377 806.445 325.227 807.425C326.077 808.395 325.977 809.874 324.997 810.724Z" fill="#54EFE5"/>
<path d="M322.537 810.695C321.687 809.725 321.787 808.245 322.767 807.395C323.237 806.985 323.817 806.805 324.397 806.825C323.597 806.475 322.627 806.585 321.927 807.195C320.957 808.045 320.847 809.515 321.697 810.495C322.137 810.995 322.747 811.265 323.367 811.295C323.057 811.165 322.777 810.965 322.547 810.695H322.537Z" fill="#4CD6CF"/>
<path d="M315.057 812.604C314.407 813.174 313.417 813.104 312.857 812.454C312.287 811.804 312.357 810.814 313.007 810.254C313.657 809.694 314.647 809.754 315.207 810.404C315.777 811.054 315.707 812.044 315.057 812.604Z" fill="#54EFE5"/>
<path d="M313.417 812.584C312.847 811.934 312.917 810.944 313.567 810.384C313.877 810.114 314.267 809.994 314.657 810.004C314.117 809.764 313.477 809.844 313.007 810.254C312.357 810.824 312.287 811.804 312.857 812.454C313.147 812.794 313.557 812.964 313.967 812.984C313.767 812.894 313.577 812.764 313.417 812.584Z" fill="#4CD6CF"/>
<path d="M331.747 823.884C330.777 824.734 329.297 824.634 328.447 823.654C327.597 822.684 327.697 821.204 328.677 820.354C329.647 819.504 331.127 819.604 331.977 820.584C332.827 821.554 332.727 823.034 331.747 823.884Z" fill="#54EFE5"/>
<path d="M329.287 823.854C328.437 822.884 328.537 821.404 329.517 820.554C329.987 820.144 330.567 819.964 331.147 819.984C330.347 819.634 329.377 819.744 328.677 820.354C327.707 821.204 327.597 822.674 328.447 823.654C328.887 824.154 329.497 824.424 330.117 824.444C329.807 824.314 329.527 824.114 329.297 823.844L329.287 823.854Z" fill="#4CD6CF"/>
<path d="M340.807 802.004C340.077 802.644 338.967 802.564 338.327 801.834C337.687 801.104 337.767 799.994 338.497 799.354C339.227 798.714 340.337 798.794 340.977 799.524C341.617 800.254 341.537 801.364 340.807 802.004Z" fill="#54EFE5"/>
<path d="M338.967 801.984C338.327 801.254 338.407 800.144 339.137 799.504C339.487 799.194 339.927 799.064 340.357 799.074C339.757 798.814 339.027 798.894 338.497 799.354C337.767 799.994 337.687 801.104 338.327 801.834C338.657 802.214 339.117 802.414 339.577 802.434C339.347 802.334 339.137 802.184 338.957 801.984H338.967Z" fill="#4CD6CF"/>
<path d="M318.687 802.674C317.907 803.354 316.717 803.274 316.037 802.494C315.357 801.714 315.437 800.524 316.217 799.844C316.997 799.164 318.187 799.244 318.867 800.024C319.547 800.804 319.467 801.994 318.687 802.674Z" fill="#54EFE5"/>
<path d="M316.717 802.644C316.037 801.864 316.117 800.684 316.897 799.994C317.277 799.664 317.747 799.524 318.207 799.544C317.567 799.264 316.787 799.344 316.227 799.844C315.447 800.524 315.367 801.704 316.047 802.494C316.397 802.894 316.887 803.114 317.387 803.134C317.137 803.024 316.917 802.874 316.727 802.654L316.717 802.644Z" fill="#4CD6CF"/>
<path d="M338.507 820.304C337.967 820.774 337.147 820.714 336.687 820.174C336.217 819.634 336.277 818.814 336.817 818.354C337.357 817.884 338.167 817.944 338.637 818.474C339.107 819.014 339.047 819.834 338.507 820.304Z" fill="#54EFE5"/>
<path d="M337.147 820.294C336.677 819.754 336.737 818.934 337.277 818.474C337.537 818.244 337.857 818.144 338.177 818.164C337.737 817.974 337.197 818.034 336.807 818.374C336.267 818.844 336.217 819.664 336.677 820.194C336.917 820.474 337.257 820.624 337.597 820.634C337.427 820.564 337.267 820.454 337.137 820.304L337.147 820.294Z" fill="#4CD6CF"/>
<path d="M330.807 796.315C330.237 796.805 329.387 796.745 328.887 796.185C328.397 795.615 328.457 794.765 329.017 794.265C329.587 793.775 330.437 793.835 330.937 794.395C331.427 794.965 331.367 795.815 330.807 796.315Z" fill="#54EFE5"/>
<path d="M329.387 796.294C328.897 795.724 328.957 794.874 329.517 794.374C329.787 794.134 330.127 794.034 330.467 794.044C329.997 793.844 329.437 793.904 329.027 794.264C328.457 794.754 328.407 795.614 328.897 796.184C329.157 796.474 329.507 796.634 329.867 796.644C329.687 796.564 329.527 796.454 329.387 796.294Z" fill="#4CD6CF"/>
<path d="M333.177 803.764C332.777 804.114 332.157 804.074 331.807 803.674C331.457 803.274 331.497 802.654 331.897 802.304C332.297 801.954 332.917 801.994 333.267 802.394C333.617 802.794 333.577 803.414 333.177 803.764Z" fill="#54EFE5"/>
<path d="M332.167 803.754C331.817 803.354 331.857 802.734 332.257 802.384C332.447 802.214 332.697 802.134 332.937 802.144C332.607 801.994 332.207 802.044 331.907 802.294C331.507 802.644 331.457 803.254 331.817 803.664C331.997 803.874 332.247 803.984 332.507 803.994C332.377 803.934 332.257 803.854 332.167 803.744V803.754Z" fill="#4CD6CF"/>
<path d="M321.627 822.494C321.227 822.844 320.607 822.804 320.257 822.404C319.907 822.004 319.947 821.384 320.347 821.034C320.747 820.684 321.367 820.724 321.717 821.124C322.067 821.524 322.027 822.144 321.627 822.494Z" fill="#54EFE5"/>
<path d="M320.607 822.474C320.257 822.074 320.297 821.454 320.697 821.104C320.887 820.934 321.137 820.864 321.377 820.864C321.047 820.714 320.647 820.764 320.347 821.014C319.947 821.364 319.897 821.974 320.257 822.384C320.437 822.594 320.687 822.704 320.947 822.714C320.817 822.654 320.707 822.574 320.607 822.464V822.474Z" fill="#4CD6CF"/>
<path d="M325.387 817.154C324.987 817.504 324.367 817.464 324.017 817.064C323.667 816.664 323.707 816.044 324.107 815.694C324.507 815.344 325.127 815.384 325.477 815.784C325.827 816.184 325.787 816.804 325.387 817.154Z" fill="#54EFE5"/>
<path d="M324.367 817.144C324.017 816.744 324.057 816.124 324.457 815.774C324.647 815.604 324.897 815.524 325.137 815.534C324.807 815.384 324.407 815.434 324.107 815.684C323.707 816.034 323.657 816.644 324.017 817.054C324.197 817.264 324.447 817.374 324.707 817.384C324.577 817.324 324.467 817.244 324.367 817.134V817.144Z" fill="#4CD6CF"/>
<path d="M326.146 801.404C325.746 801.754 325.126 801.714 324.776 801.314C324.426 800.914 324.466 800.294 324.866 799.944C325.266 799.594 325.886 799.634 326.236 800.034C326.586 800.434 326.546 801.054 326.146 801.404Z" fill="#54EFE5"/>
<path d="M325.127 801.384C324.777 800.984 324.817 800.364 325.217 800.014C325.407 799.844 325.657 799.764 325.897 799.774C325.567 799.624 325.167 799.674 324.867 799.924C324.467 800.274 324.417 800.884 324.777 801.294C324.957 801.504 325.217 801.614 325.467 801.624C325.337 801.564 325.227 801.484 325.127 801.374V801.384Z" fill="#4CD6CF"/>
<path d="M333.607 812.915C333.037 813.405 332.187 813.345 331.687 812.785C331.197 812.215 331.257 811.365 331.817 810.865C332.387 810.375 333.237 810.435 333.737 810.995C334.227 811.565 334.167 812.415 333.607 812.915Z" fill="#54EFE5"/>
<path d="M332.177 812.894C331.687 812.324 331.747 811.474 332.307 810.974C332.577 810.734 332.917 810.634 333.257 810.644C332.787 810.444 332.227 810.504 331.817 810.854C331.247 811.344 331.197 812.204 331.687 812.774C331.947 813.064 332.297 813.224 332.657 813.234C332.477 813.154 332.317 813.044 332.177 812.884V812.894Z" fill="#4CD6CF"/>
<path d="M1174.18 786.667C1165.91 792.837 1154.2 791.127 1148.03 782.857C1141.86 774.587 1143.57 762.877 1151.84 756.707C1160.11 750.537 1171.82 752.247 1177.99 760.517C1184.16 768.787 1182.45 780.497 1174.18 786.667Z" fill="#FF58C4"/>
<path d="M1177.91 775.767C1176.87 776.537 1175.4 776.327 1174.63 775.287C1173.86 774.247 1174.07 772.777 1175.11 772.007C1176.15 771.237 1177.62 771.447 1178.39 772.487C1179.16 773.527 1178.95 774.997 1177.91 775.767Z" fill="#EF54BE"/>
<path d="M1175.46 775.547C1174.69 774.507 1174.9 773.037 1175.94 772.267C1176.44 771.897 1177.04 771.757 1177.61 771.827C1176.83 771.417 1175.86 771.447 1175.11 772.007C1174.07 772.777 1173.86 774.247 1174.63 775.287C1175.03 775.827 1175.62 776.137 1176.24 776.207C1175.94 776.047 1175.67 775.837 1175.46 775.547Z" fill="#D64CA9"/>
<path d="M1159.23 773.506C1158.19 774.276 1156.72 774.066 1155.95 773.026C1155.18 771.986 1155.39 770.516 1156.43 769.746C1157.47 768.976 1158.94 769.186 1159.71 770.226C1160.48 771.266 1160.27 772.736 1159.23 773.506Z" fill="#EF54BE"/>
<path d="M1156.78 773.287C1156.01 772.247 1156.22 770.777 1157.26 770.007C1157.76 769.637 1158.36 769.497 1158.93 769.567C1158.15 769.157 1157.18 769.187 1156.43 769.747C1155.39 770.517 1155.18 771.987 1155.95 773.027C1156.35 773.567 1156.94 773.877 1157.56 773.947C1157.26 773.787 1156.99 773.567 1156.78 773.287Z" fill="#D64CA9"/>
<path d="M1149.14 774.627C1148.45 775.147 1147.46 774.997 1146.95 774.307C1146.43 773.617 1146.58 772.627 1147.27 772.117C1147.96 771.597 1148.95 771.737 1149.46 772.437C1149.98 773.127 1149.83 774.117 1149.14 774.627Z" fill="#EF54BE"/>
<path d="M1147.51 774.487C1146.99 773.797 1147.14 772.807 1147.83 772.297C1148.16 772.047 1148.56 771.957 1148.95 771.997C1148.43 771.717 1147.78 771.747 1147.28 772.117C1146.59 772.637 1146.44 773.617 1146.96 774.307C1147.23 774.667 1147.62 774.877 1148.04 774.927C1147.84 774.827 1147.66 774.677 1147.52 774.487H1147.51Z" fill="#D64CA9"/>
<path d="M1164.98 787.187C1163.94 787.957 1162.47 787.747 1161.7 786.707C1160.93 785.667 1161.14 784.197 1162.18 783.427C1163.22 782.657 1164.69 782.867 1165.46 783.907C1166.23 784.947 1166.02 786.417 1164.98 787.187Z" fill="#EF54BE"/>
<path d="M1162.53 786.967C1161.75 785.927 1161.97 784.457 1163.01 783.687C1163.51 783.317 1164.11 783.177 1164.68 783.247C1163.9 782.837 1162.93 782.867 1162.18 783.427C1161.14 784.197 1160.93 785.667 1161.7 786.707C1162.1 787.247 1162.69 787.557 1163.31 787.627C1163.01 787.467 1162.74 787.257 1162.53 786.967Z" fill="#D64CA9"/>
<path d="M1175.72 765.987C1174.94 766.567 1173.84 766.407 1173.25 765.627C1172.67 764.847 1172.83 763.747 1173.61 763.157C1174.39 762.577 1175.49 762.737 1176.08 763.517C1176.66 764.297 1176.5 765.397 1175.72 765.987Z" fill="#EF54BE"/>
<path d="M1173.88 765.817C1173.3 765.037 1173.46 763.937 1174.24 763.347C1174.62 763.067 1175.07 762.967 1175.5 763.017C1174.92 762.707 1174.18 762.737 1173.62 763.157C1172.84 763.737 1172.68 764.847 1173.26 765.627C1173.56 766.027 1174 766.267 1174.47 766.317C1174.25 766.197 1174.05 766.037 1173.88 765.817Z" fill="#D64CA9"/>
<path d="M1153.53 764.967C1152.7 765.587 1151.52 765.417 1150.9 764.587C1150.28 763.757 1150.45 762.577 1151.28 761.957C1152.11 761.337 1153.29 761.507 1153.91 762.337C1154.53 763.167 1154.36 764.347 1153.53 764.967Z" fill="#EF54BE"/>
<path d="M1151.56 764.797C1150.94 763.967 1151.11 762.787 1151.94 762.167C1152.34 761.867 1152.82 761.757 1153.28 761.807C1152.66 761.477 1151.87 761.507 1151.27 761.957C1150.44 762.577 1150.27 763.757 1150.89 764.587C1151.21 765.017 1151.68 765.267 1152.18 765.327C1151.94 765.197 1151.73 765.027 1151.56 764.797Z" fill="#D64CA9"/>
<path d="M1172.02 784.127C1171.45 784.557 1170.63 784.437 1170.2 783.867C1169.77 783.297 1169.89 782.477 1170.46 782.047C1171.03 781.617 1171.85 781.737 1172.28 782.307C1172.71 782.877 1172.59 783.697 1172.02 784.127Z" fill="#EF54BE"/>
<path d="M1170.66 784.007C1170.23 783.437 1170.35 782.617 1170.92 782.187C1171.2 781.977 1171.53 781.907 1171.85 781.937C1171.42 781.707 1170.88 781.727 1170.47 782.037C1169.89 782.467 1169.78 783.277 1170.21 783.857C1170.43 784.157 1170.76 784.327 1171.1 784.367C1170.94 784.277 1170.79 784.157 1170.67 783.997L1170.66 784.007Z" fill="#D64CA9"/>
<path d="M1166.14 759.526C1165.54 759.976 1164.68 759.856 1164.23 759.246C1163.78 758.646 1163.9 757.787 1164.51 757.337C1165.11 756.887 1165.97 757.007 1166.42 757.617C1166.87 758.217 1166.75 759.076 1166.14 759.526Z" fill="#EF54BE"/>
<path d="M1164.72 759.396C1164.27 758.796 1164.39 757.936 1165 757.486C1165.29 757.266 1165.64 757.186 1165.97 757.226C1165.52 756.986 1164.95 757.006 1164.51 757.336C1163.91 757.786 1163.78 758.636 1164.23 759.246C1164.46 759.556 1164.81 759.736 1165.16 759.786C1164.99 759.696 1164.83 759.566 1164.71 759.406L1164.72 759.396Z" fill="#D64CA9"/>
<path d="M1167.95 767.167C1167.52 767.487 1166.91 767.397 1166.59 766.967C1166.27 766.537 1166.36 765.927 1166.79 765.607C1167.22 765.287 1167.83 765.377 1168.15 765.807C1168.47 766.237 1168.38 766.847 1167.95 767.167Z" fill="#EF54BE"/>
<path d="M1166.93 767.077C1166.61 766.647 1166.7 766.036 1167.13 765.716C1167.34 765.566 1167.59 765.507 1167.83 765.537C1167.51 765.367 1167.1 765.377 1166.79 765.617C1166.36 765.937 1166.27 766.547 1166.59 766.977C1166.76 767.197 1167 767.327 1167.26 767.357C1167.14 767.287 1167.03 767.197 1166.94 767.087L1166.93 767.077Z" fill="#D64CA9"/>
<path d="M1154.96 785.027C1154.53 785.347 1153.92 785.257 1153.6 784.827C1153.28 784.397 1153.37 783.787 1153.8 783.467C1154.23 783.147 1154.84 783.237 1155.16 783.667C1155.48 784.097 1155.39 784.707 1154.96 785.027Z" fill="#EF54BE"/>
<path d="M1153.95 784.936C1153.63 784.506 1153.72 783.896 1154.15 783.576C1154.36 783.426 1154.61 783.366 1154.84 783.396C1154.52 783.226 1154.11 783.236 1153.8 783.476C1153.37 783.796 1153.28 784.406 1153.6 784.836C1153.77 785.056 1154.01 785.186 1154.27 785.216C1154.15 785.146 1154.04 785.056 1153.95 784.946V784.936Z" fill="#D64CA9"/>
<path d="M1159.13 779.977C1158.7 780.297 1158.09 780.207 1157.77 779.777C1157.45 779.347 1157.54 778.737 1157.97 778.417C1158.4 778.097 1159.01 778.187 1159.33 778.617C1159.65 779.047 1159.56 779.657 1159.13 779.977Z" fill="#EF54BE"/>
<path d="M1158.11 779.887C1157.79 779.457 1157.88 778.847 1158.31 778.527C1158.52 778.367 1158.77 778.317 1159 778.347C1158.68 778.177 1158.27 778.187 1157.96 778.427C1157.53 778.747 1157.44 779.357 1157.76 779.787C1157.93 780.007 1158.17 780.137 1158.43 780.167C1158.31 780.097 1158.2 780.007 1158.11 779.897V779.887Z" fill="#D64CA9"/>
<path d="M1161.09 764.267C1160.66 764.587 1160.05 764.497 1159.73 764.067C1159.41 763.637 1159.5 763.027 1159.93 762.707C1160.36 762.387 1160.97 762.477 1161.29 762.907C1161.61 763.337 1161.52 763.947 1161.09 764.267Z" fill="#EF54BE"/>
<path d="M1160.08 764.177C1159.76 763.747 1159.85 763.137 1160.28 762.817C1160.49 762.667 1160.74 762.607 1160.97 762.637C1160.65 762.467 1160.24 762.477 1159.93 762.717C1159.5 763.037 1159.41 763.647 1159.73 764.077C1159.9 764.297 1160.14 764.427 1160.4 764.457C1160.28 764.387 1160.17 764.297 1160.08 764.187V764.177Z" fill="#D64CA9"/>
<path d="M1167.68 776.347C1167.08 776.797 1166.22 776.677 1165.77 776.067C1165.32 775.467 1165.44 774.607 1166.05 774.157C1166.65 773.707 1167.51 773.827 1167.96 774.437C1168.41 775.037 1168.29 775.897 1167.68 776.347Z" fill="#EF54BE"/>
<path d="M1166.25 776.227C1165.8 775.627 1165.92 774.767 1166.53 774.317C1166.82 774.097 1167.17 774.017 1167.5 774.057C1167.05 773.817 1166.48 773.837 1166.05 774.167C1165.45 774.617 1165.32 775.467 1165.77 776.077C1166 776.387 1166.35 776.567 1166.7 776.617C1166.53 776.527 1166.37 776.397 1166.25 776.237V776.227Z" fill="#D64CA9"/>
<g style="mix-blend-mode:overlay">
<path d="M1177.51 759.897C1177.68 760.097 1177.84 760.307 1178 760.517C1178.65 761.387 1179.21 762.297 1179.69 763.237C1185.35 762.277 1189.23 762.537 1189.88 764.227C1191.1 767.407 1180.49 774.427 1166.18 779.907C1151.87 785.387 1139.29 787.257 1138.07 784.077C1137.42 782.387 1140.14 779.597 1144.98 776.527C1144.63 775.217 1144.42 773.887 1144.36 772.557C1132.91 778.617 1125.82 784.787 1127.16 788.257C1129.04 793.167 1147 790.847 1167.27 783.077C1187.54 775.307 1202.45 765.027 1200.56 760.127C1199.24 756.677 1189.96 756.807 1177.52 759.877L1177.51 759.897Z" fill="#64748B"/>
</g>
<g opacity="0.7">
<path style="mix-blend-mode:screen" d="M531.99 388.649C530.72 387.379 530.72 385.319 531.99 384.049L558.87 357.169L563.47 361.769L536.59 388.649C535.32 389.919 533.26 389.919 531.99 388.649Z" fill="url(#paint0_linear_1781_160574)"/>
<path style="mix-blend-mode:screen" d="M532.96 408.25C531.69 406.98 531.69 404.92 532.96 403.65L559.84 376.77L564.44 381.37L537.56 408.25C536.29 409.52 534.23 409.52 532.96 408.25Z" fill="url(#paint1_linear_1781_160574)"/>
<path style="mix-blend-mode:screen" d="M510.94 392.76C509.67 391.49 509.67 389.43 510.94 388.16L537.82 361.28L542.42 365.88L515.54 392.76C514.27 394.03 512.21 394.03 510.94 392.76Z" fill="url(#paint2_linear_1781_160574)"/>
<path style="mix-blend-mode:screen" d="M519.65 368.08C518.38 366.81 518.38 364.75 519.65 363.48L546.53 336.6L551.13 341.2L524.25 368.08C522.98 369.35 520.92 369.35 519.65 368.08Z" fill="url(#paint3_linear_1781_160574)"/>
</g>
<g opacity="0.5">
<path style="mix-blend-mode:screen" d="M912.77 330.56C911.73 329.52 911.73 327.84 912.77 326.8L934.75 304.82L938.51 308.58L916.53 330.56C915.49 331.6 913.81 331.6 912.77 330.56Z" fill="url(#paint4_linear_1781_160574)"/>
<path style="mix-blend-mode:screen" d="M913.56 346.58C912.52 345.54 912.52 343.86 913.56 342.82L935.54 320.84L939.3 324.6L917.32 346.58C916.28 347.62 914.6 347.62 913.56 346.58Z" fill="url(#paint5_linear_1781_160574)"/>
<path style="mix-blend-mode:screen" d="M895.56 333.92C894.52 332.88 894.52 331.2 895.56 330.16L917.54 308.18L921.3 311.94L899.32 333.92C898.28 334.96 896.6 334.96 895.56 333.92Z" fill="url(#paint6_linear_1781_160574)"/>
<path style="mix-blend-mode:screen" d="M902.68 313.74C901.64 312.7 901.64 311.02 902.68 309.98L924.66 288L928.42 291.76L906.44 313.74C905.4 314.78 903.72 314.78 902.68 313.74Z" fill="url(#paint7_linear_1781_160574)"/>
</g>
<path d="M732.786 324.452L680.146 326.182C672.246 302.342 671.426 259.352 703.886 258.592C736.346 257.832 740.416 300.102 732.796 324.452H732.786Z" fill="#67A7DB"/>
<g style="mix-blend-mode:multiply" opacity="0.8">
<path d="M712.356 259.492C709.776 258.842 706.956 258.522 703.886 258.602C671.426 259.352 672.256 302.342 680.146 326.192L689.326 325.892C674.076 307.672 674.656 257.672 712.356 259.502V259.492Z" fill="#67A7DB"/>
</g>
<path d="M698.886 288.482C698.976 290.432 696.596 292.132 693.566 292.262C690.546 292.402 688.026 290.922 687.936 288.972C687.846 287.022 690.226 285.322 693.246 285.192C696.266 285.052 698.796 286.532 698.876 288.482H698.886Z" fill="#64748B"/>
<path d="M697.405 287.932C697.435 288.652 696.555 289.282 695.435 289.332C694.315 289.382 693.385 288.832 693.345 288.112C693.315 287.392 694.195 286.762 695.315 286.712C696.435 286.662 697.365 287.212 697.405 287.932Z" fill="#1B1464"/>
<path d="M724.586 286.772C724.676 288.722 722.296 290.422 719.266 290.552C716.246 290.692 713.726 289.212 713.636 287.262C713.546 285.312 715.926 283.612 718.956 283.482C721.976 283.342 724.496 284.822 724.586 286.772Z" fill="#64748B"/>
<path d="M723.116 286.232C723.146 286.952 722.266 287.582 721.146 287.632C720.026 287.682 719.096 287.132 719.066 286.412C719.036 285.692 719.916 285.062 721.036 285.012C722.156 284.962 723.086 285.512 723.126 286.232H723.116Z" fill="#1B1464"/>
<path d="M691.946 296.142C691.996 297.622 689.866 298.902 687.176 298.992C684.496 299.082 682.276 297.962 682.226 296.472C682.176 294.992 684.306 293.712 686.996 293.622C689.676 293.532 691.896 294.652 691.946 296.142Z" fill="#F6BBD6"/>
<g style="mix-blend-mode:multiply" opacity="0.8">
<path d="M689.176 304.122C689.176 304.122 706.106 298.582 725.776 301.312C725.776 301.312 724.456 315.642 710.706 316.882C695.836 318.212 689.026 304.112 689.176 304.122Z" fill="#67A7DB"/>
</g>
<path d="M731.166 293.442C731.186 294.922 729.026 296.152 726.336 296.182C723.656 296.212 721.466 295.042 721.446 293.562C721.426 292.082 723.586 290.852 726.276 290.822C728.956 290.792 731.156 291.962 731.166 293.442Z" fill="#F6BBD6"/>
<path d="M689.176 304.122C689.176 304.122 706.106 298.582 725.776 301.312C725.776 301.312 724.236 313.842 710.486 315.072C695.616 316.402 689.026 304.102 689.176 304.122Z" fill="#365873"/>
<path d="M710.496 315.072C714.896 314.682 718.046 313.122 720.296 311.192C716.926 309.152 712.416 307.652 706.676 308.192C702.326 308.602 699.216 310.142 696.976 312.052C700.326 314.082 704.806 315.572 710.496 315.062V315.072Z" fill="#183964"/>
<path d="M713.366 302.742C713.306 302.082 713.186 301.212 713.086 300.572C711.376 300.602 709.716 300.672 708.126 300.792C708.066 301.642 708.126 302.852 708.966 303.332C710.306 304.102 713.466 303.942 713.366 302.752V302.742ZM702.336 301.372C702.356 302.032 702.406 303.062 702.486 303.802C702.616 304.992 705.756 304.532 706.916 303.522C707.646 302.892 707.476 301.672 707.246 300.852C705.516 300.992 703.876 301.172 702.336 301.372Z" fill="#64748B"/>
<path d="M686.666 283.302L697.436 281.022L697.136 278.552L686.226 278.632L686.666 283.302Z" fill="#1E284B"/>
<path d="M725.416 279.922L714.436 279.152L714.396 276.662L725.216 275.242L725.416 279.922Z" fill="#1E284B"/>
<path d="M715.536 265.682C715.536 265.682 719.176 256.922 726.326 255.082L726.596 256.522C726.596 256.522 720.476 258.502 719.796 267.072L715.536 265.682Z" fill="#67A7DB"/>
<path d="M729.586 255.802C729.816 254.092 728.616 252.522 726.906 252.292C725.196 252.062 723.626 253.262 723.396 254.972C723.166 256.682 724.366 258.252 726.076 258.482C727.786 258.712 729.356 257.512 729.586 255.802Z" fill="#67A7DB"/>
<path d="M695.266 265.052C695.266 265.052 699.156 255.692 706.806 253.722L707.096 255.262C707.096 255.262 700.556 257.382 699.826 266.542L695.276 265.052H695.266Z" fill="#67A7DB"/>
<path d="M710.296 254.482C710.546 252.652 709.256 250.972 707.436 250.732C705.606 250.482 703.926 251.772 703.686 253.592C703.436 255.422 704.726 257.102 706.546 257.342C708.376 257.592 710.056 256.302 710.296 254.482Z" fill="#67A7DB"/>
<g style="mix-blend-mode:multiply" opacity="0.8">
<path d="M719.796 267.082C719.796 267.082 720.696 265.642 722.366 264.482C721.796 264.022 721.206 263.592 720.596 263.172C720.206 264.292 719.916 265.582 719.796 267.072V267.082Z" fill="#67A7DB"/>
</g>
<path d="M789.356 344.182C791.016 364.982 758.236 384.562 716.146 387.912C674.056 391.262 638.596 377.112 636.946 356.312C635.286 335.512 668.066 315.932 710.156 312.582C752.246 309.232 787.706 323.382 789.356 344.182Z" fill="#BF5540"/>
<g style="mix-blend-mode:soft-light">
<path d="M722.046 312.092L694.576 336.032L711.806 337.222L739.476 313.122C733.936 312.442 728.096 312.092 722.056 312.102L722.046 312.092ZM743.506 313.662L716.136 337.502L723.086 337.982L749.696 314.792C747.686 314.362 745.616 313.982 743.496 313.652L743.506 313.662Z" fill="#64748B"/>
</g>
<path d="M790.185 349.212C791.845 370.012 759.065 389.592 716.975 392.942C674.885 396.292 639.425 382.142 637.765 361.342C636.105 340.542 668.885 320.962 710.975 317.612C753.065 314.262 788.525 328.412 790.175 349.212H790.185Z" fill="#68291A"/>
<path d="M785.936 349.542C787.596 370.342 756.716 389.772 716.976 392.932C677.236 396.092 643.676 381.792 642.026 360.992C640.366 340.192 671.246 320.762 710.986 317.592C750.726 314.432 784.286 328.732 785.936 349.532V349.542Z" fill="#833424"/>
<path d="M770.776 357.572C770.356 353.222 767.576 349.432 763.586 347.662C750.796 341.962 734.066 339.312 716.096 341.022C698.126 342.732 682.186 348.472 670.706 356.482C667.126 358.982 665.106 363.222 665.506 367.572C665.506 367.592 665.506 367.622 665.506 367.642C666.366 376.712 670.996 384.712 678.106 390.872C689.656 393.242 702.936 394.072 716.966 392.952C735.186 391.502 751.656 387.012 764.346 380.692C769.136 373.792 771.546 365.862 770.776 357.652C770.776 357.632 770.776 357.602 770.776 357.582V357.572Z" fill="#5C2314"/>
<path d="M666.126 356.422C662.546 358.922 660.526 363.162 660.926 367.512C660.926 367.532 660.926 367.562 660.926 367.582C663.056 390.082 688.356 406.082 717.426 403.322C746.496 400.562 768.326 380.092 766.196 357.592C766.196 357.572 766.196 357.542 766.196 357.522C765.776 353.172 762.996 349.382 759.006 347.612C746.216 341.912 729.486 339.262 711.516 340.972C693.546 342.672 677.606 348.422 666.126 356.432V356.422Z" fill="#F49A71"/>
<g style="mix-blend-mode:multiply">
<path d="M662.076 370.632C662.076 370.632 662.076 370.582 662.076 370.562C661.676 366.212 663.686 361.972 667.276 359.472C678.766 351.472 694.696 345.722 712.666 344.022C730.636 342.312 747.366 344.962 760.156 350.662C762.666 351.782 764.696 353.702 765.966 356.052C765.126 352.332 762.546 349.192 759.016 347.612C746.226 341.912 729.496 339.262 711.526 340.972C693.556 342.672 677.616 348.422 666.136 356.432C662.556 358.932 660.536 363.172 660.936 367.522C660.936 367.542 660.936 367.572 660.936 367.592C661.266 371.042 662.146 374.342 663.496 377.442C662.796 375.252 662.306 372.982 662.076 370.632Z" fill="#F49A71"/>
</g>
<g style="mix-blend-mode:multiply" opacity="0.6">
<path d="M666.816 365.902C666.816 365.902 666.816 365.852 666.816 365.822C666.376 361.052 668.356 356.422 671.916 353.712C673.626 352.412 675.446 351.182 677.346 350.002C673.266 351.922 669.506 354.062 666.126 356.412C662.546 358.912 660.526 363.152 660.926 367.502C660.926 367.522 660.926 367.552 660.926 367.572C662.536 384.492 677.246 397.742 696.816 402.092C680.346 395.862 668.386 382.432 666.816 365.892V365.902Z" fill="#F49A71"/>
</g>
<g style="mix-blend-mode:multiply" opacity="0.6">
<path d="M766.326 361.162C766.346 359.982 766.316 358.792 766.206 357.592C766.206 357.572 766.206 357.542 766.206 357.522C765.786 353.172 763.006 349.382 759.016 347.612C746.226 341.912 729.496 339.262 711.526 340.972C693.556 342.672 677.616 348.422 666.136 356.432C662.556 358.932 660.536 363.172 660.936 367.522C660.936 367.542 660.936 367.572 660.936 367.592C661.226 370.672 661.966 373.622 663.076 376.422C670.926 380.902 685.336 385.902 701.826 376.312C724.046 363.382 743.546 352.532 766.326 361.172V361.162Z" fill="#F49A71"/>
</g>
<g style="mix-blend-mode:multiply" opacity="0.6">
<path d="M714.716 403.532C684.516 391.092 678.596 360.692 677.446 349.962C673.326 351.892 669.516 354.062 666.116 356.432C662.536 358.932 660.516 363.172 660.916 367.522C660.916 367.542 660.916 367.572 660.916 367.592C662.986 389.382 686.786 405.082 714.706 403.532H714.716Z" fill="#F49A71"/>
</g>
<g style="mix-blend-mode:soft-light" opacity="0.6">
<path d="M732.896 398.172C732.896 398.172 749.476 392.352 757.716 379.172C759.916 375.652 758.296 370.892 754.526 369.552C751.346 368.422 747.896 370.202 746.746 373.542C744.596 379.772 740.326 389.702 732.896 398.172Z" fill="#64748B"/>
</g>
<g style="mix-blend-mode:soft-light" opacity="0.6">
<path d="M762.346 360.852C762.106 364.262 759.156 366.842 755.736 366.602C752.326 366.372 749.746 363.412 749.986 360.002C750.226 356.592 753.176 354.012 756.596 354.252C760.006 354.482 762.586 357.442 762.346 360.852Z" fill="#64748B"/>
</g>
<path d="M675.196 336.692C676.186 339.122 673.686 342.432 669.626 344.082C665.556 345.742 661.456 345.112 660.476 342.682C659.486 340.252 661.986 336.942 666.046 335.292C670.116 333.632 674.216 334.262 675.196 336.692Z" fill="#68291A"/>
<path d="M675.446 338.592C676.436 341.022 674.166 344.242 670.366 345.782C666.576 347.322 662.696 346.612 661.716 344.182C660.726 341.752 662.996 338.532 666.796 336.992C670.586 335.452 674.466 336.162 675.446 338.592Z" fill="#EB5B92"/>
<path d="M655.706 352.042C657.476 353.242 657.286 356.622 655.266 359.592C653.256 362.562 650.186 363.992 648.416 362.792C646.646 361.592 646.836 358.212 648.856 355.242C650.866 352.272 653.936 350.842 655.706 352.042Z" fill="#68291A"/>
<path d="M656.726 353.213C658.496 354.413 658.416 357.633 656.536 360.393C654.656 363.163 651.706 364.433 649.936 363.233C648.166 362.033 648.246 358.813 650.126 356.053C652.006 353.283 654.956 352.013 656.726 353.213Z" fill="#FFF268"/>
<path d="M758.216 331.472C756.906 333.742 758.926 337.362 762.726 339.562C766.526 341.762 770.676 341.702 771.986 339.432C773.296 337.162 771.276 333.542 767.476 331.342C763.676 329.142 759.526 329.202 758.216 331.472Z" fill="#68291A"/>
<path d="M757.715 333.313C756.405 335.583 758.215 339.083 761.755 341.133C765.295 343.183 769.235 343.003 770.545 340.733C771.855 338.463 770.045 334.963 766.505 332.913C762.965 330.863 759.025 331.043 757.715 333.313Z" fill="#EB5B92"/>
<path d="M776.226 346.532C774.306 347.482 774.036 350.852 775.626 354.072C777.216 357.292 780.056 359.132 781.976 358.182C783.896 357.232 784.166 353.862 782.576 350.642C780.986 347.422 778.146 345.582 776.226 346.532Z" fill="#68291A"/>
<path d="M775.056 347.562C773.136 348.512 772.776 351.702 774.256 354.702C775.736 357.702 778.486 359.362 780.406 358.412C782.326 357.462 782.686 354.272 781.206 351.272C779.726 348.272 776.976 346.612 775.056 347.562Z" fill="#FFF268"/>
<path d="M641.976 294.922C641.606 294.892 641.326 294.572 641.356 294.202L641.616 290.432C641.646 290.062 641.966 289.782 642.336 289.812C642.706 289.842 642.986 290.162 642.956 290.532L642.696 294.302C642.666 294.672 642.346 294.952 641.976 294.922Z" fill="#64748B"/>
<path d="M641.476 302.102C641.106 302.072 640.826 301.752 640.856 301.382L641.116 297.612C641.146 297.242 641.466 296.962 641.836 296.992C642.206 297.022 642.486 297.342 642.456 297.712L642.196 301.482C642.166 301.852 641.846 302.132 641.476 302.102Z" fill="#64748B"/>
<path d="M647.326 297.002L643.556 296.742C643.186 296.712 642.906 296.392 642.936 296.022C642.966 295.652 643.286 295.372 643.656 295.402L647.426 295.662C647.796 295.692 648.076 296.012 648.046 296.382C648.016 296.752 647.696 297.032 647.326 297.002Z" fill="#64748B"/>
<path d="M640.146 296.512L636.376 296.252C636.006 296.222 635.726 295.902 635.756 295.532C635.786 295.162 636.106 294.882 636.476 294.912L640.246 295.172C640.616 295.202 640.896 295.522 640.866 295.892C640.836 296.262 640.516 296.542 640.146 296.512Z" fill="#64748B"/>
<g opacity="0.5">
<path d="M686.326 246.932C686.116 246.922 685.956 246.732 685.966 246.522L686.116 244.352C686.136 244.142 686.316 243.982 686.526 243.992C686.736 244.002 686.896 244.192 686.886 244.402L686.736 246.572C686.726 246.782 686.536 246.942 686.326 246.932Z" fill="#64748B"/>
<path d="M686.046 251.072C685.836 251.062 685.676 250.872 685.686 250.662L685.836 248.492C685.846 248.282 686.036 248.122 686.246 248.132C686.456 248.142 686.616 248.332 686.606 248.542L686.456 250.712C686.446 250.922 686.256 251.082 686.046 251.072Z" fill="#64748B"/>
<path d="M689.416 248.132L687.246 247.982C687.036 247.972 686.876 247.782 686.886 247.572C686.896 247.362 687.086 247.202 687.296 247.212L689.466 247.362C689.676 247.372 689.836 247.562 689.826 247.772C689.816 247.982 689.626 248.152 689.416 248.132Z" fill="#64748B"/>
<path d="M685.276 247.852L683.106 247.702C682.896 247.692 682.736 247.502 682.746 247.292C682.756 247.082 682.946 246.922 683.156 246.932L685.326 247.082C685.536 247.092 685.696 247.282 685.686 247.492C685.676 247.702 685.486 247.862 685.276 247.852Z" fill="#64748B"/>
</g>
<g opacity="0.5">
<path d="M662.126 288.532C661.916 288.522 661.756 288.332 661.766 288.122L661.916 285.952C661.926 285.742 662.116 285.582 662.326 285.592C662.536 285.602 662.696 285.792 662.686 286.002L662.536 288.172C662.526 288.382 662.336 288.542 662.126 288.532Z" fill="#64748B"/>
<path d="M661.836 292.672C661.626 292.662 661.466 292.472 661.476 292.262L661.626 290.092C661.646 289.882 661.826 289.722 662.036 289.732C662.246 289.742 662.406 289.932 662.396 290.142L662.246 292.312C662.236 292.522 662.046 292.682 661.836 292.672Z" fill="#64748B"/>
<path d="M665.206 289.732L663.036 289.582C662.826 289.572 662.666 289.382 662.676 289.172C662.686 288.962 662.876 288.792 663.086 288.812L665.256 288.962C665.466 288.972 665.626 289.162 665.616 289.372C665.606 289.582 665.416 289.742 665.206 289.732Z" fill="#64748B"/>
<path d="M661.066 289.452L658.896 289.302C658.686 289.292 658.526 289.102 658.536 288.892C658.546 288.682 658.736 288.522 658.946 288.532L661.116 288.682C661.326 288.692 661.486 288.882 661.476 289.092C661.466 289.302 661.276 289.472 661.066 289.452Z" fill="#64748B"/>
</g>
<g opacity="0.5">
<path d="M643.875 265.182C643.665 265.172 643.495 264.982 643.515 264.772L643.665 262.602C643.675 262.392 643.865 262.222 644.075 262.242C644.285 262.262 644.445 262.442 644.435 262.652L644.285 264.822C644.275 265.032 644.085 265.192 643.875 265.182Z" fill="#64748B"/>
<path d="M643.586 269.322C643.376 269.312 643.216 269.122 643.226 268.912L643.376 266.742C643.386 266.532 643.576 266.372 643.786 266.382C643.996 266.392 644.156 266.582 644.146 266.792L643.996 268.962C643.986 269.172 643.796 269.332 643.586 269.322Z" fill="#64748B"/>
<path d="M646.966 266.382L644.796 266.232C644.586 266.222 644.426 266.032 644.436 265.822C644.446 265.612 644.636 265.452 644.846 265.462L647.016 265.612C647.226 265.622 647.386 265.812 647.376 266.022C647.366 266.232 647.176 266.402 646.966 266.382Z" fill="#64748B"/>
<path d="M642.825 266.092L640.655 265.942C640.445 265.932 640.285 265.742 640.295 265.532C640.305 265.322 640.495 265.162 640.705 265.172L642.875 265.322C643.085 265.332 643.245 265.522 643.235 265.732C643.225 265.942 643.035 266.102 642.825 266.092Z" fill="#64748B"/>
</g>
<g opacity="0.5">
<path d="M645.636 317.802C645.426 317.792 645.266 317.602 645.276 317.392L645.426 315.222C645.446 315.012 645.626 314.852 645.836 314.862C646.046 314.872 646.206 315.062 646.196 315.272L646.046 317.442C646.036 317.652 645.846 317.812 645.636 317.802Z" fill="#64748B"/>
<path d="M645.356 321.932C645.146 321.922 644.976 321.732 644.996 321.522L645.146 319.352C645.156 319.142 645.346 318.982 645.556 318.992C645.766 319.002 645.926 319.192 645.916 319.402L645.766 321.572C645.756 321.782 645.566 321.942 645.356 321.932Z" fill="#64748B"/>
<path d="M648.726 319.002L646.556 318.852C646.346 318.842 646.186 318.652 646.196 318.442C646.206 318.232 646.396 318.072 646.606 318.082L648.776 318.232C648.986 318.252 649.146 318.432 649.136 318.642C649.116 318.852 648.936 319.012 648.726 319.002Z" fill="#64748B"/>
<path d="M644.586 318.712L642.416 318.562C642.206 318.552 642.046 318.362 642.056 318.152C642.066 317.942 642.256 317.782 642.466 317.792L644.636 317.942C644.846 317.952 645.006 318.142 644.996 318.352C644.986 318.562 644.796 318.722 644.586 318.712Z" fill="#64748B"/>
</g>
<g opacity="0.5">
<path d="M723.306 240.592C723.096 240.582 722.936 240.392 722.946 240.182L723.096 238.012C723.106 237.802 723.296 237.642 723.506 237.652C723.716 237.662 723.876 237.852 723.866 238.062L723.716 240.232C723.706 240.442 723.516 240.612 723.306 240.592Z" fill="#FFFF00"/>
<path d="M723.016 244.732C722.806 244.722 722.646 244.532 722.656 244.322L722.806 242.152C722.816 241.942 723.006 241.782 723.216 241.792C723.426 241.802 723.586 241.992 723.576 242.202L723.426 244.372C723.416 244.582 723.226 244.742 723.016 244.732Z" fill="#FFFF00"/>
<path d="M726.396 241.793L724.226 241.643C724.016 241.633 723.856 241.443 723.866 241.233C723.876 241.023 724.066 240.863 724.276 240.873L726.446 241.023C726.656 241.033 726.816 241.223 726.806 241.433C726.796 241.643 726.606 241.803 726.396 241.793Z" fill="#FFFF00"/>
<path d="M722.246 241.502L720.076 241.352C719.866 241.342 719.706 241.152 719.716 240.942C719.726 240.732 719.916 240.572 720.126 240.582L722.296 240.732C722.506 240.742 722.666 240.932 722.656 241.142C722.646 241.352 722.456 241.512 722.246 241.502Z" fill="#FFFF00"/>
</g>
<g opacity="0.5">
<path d="M759.266 257.542C759.056 257.532 758.896 257.342 758.906 257.132L759.056 254.962C759.066 254.752 759.256 254.592 759.466 254.602C759.676 254.612 759.836 254.802 759.826 255.012L759.676 257.182C759.666 257.392 759.476 257.552 759.266 257.542Z" fill="#FFFF00"/>
<path d="M758.975 261.682C758.765 261.672 758.595 261.482 758.615 261.272L758.765 259.102C758.775 258.892 758.965 258.732 759.175 258.742C759.385 258.752 759.545 258.942 759.535 259.152L759.385 261.322C759.375 261.532 759.185 261.692 758.975 261.682Z" fill="#FFFF00"/>
<path d="M762.356 258.742L760.186 258.592C759.976 258.582 759.816 258.392 759.826 258.182C759.836 257.972 760.026 257.812 760.236 257.822L762.406 257.972C762.616 257.982 762.776 258.172 762.766 258.382C762.756 258.592 762.566 258.762 762.356 258.742Z" fill="#FFFF00"/>
<path d="M758.216 258.452L756.045 258.302C755.835 258.292 755.676 258.102 755.686 257.892C755.696 257.682 755.886 257.522 756.096 257.532L758.265 257.682C758.475 257.702 758.636 257.882 758.626 258.092C758.616 258.302 758.426 258.462 758.216 258.452Z" fill="#FFFF00"/>
</g>
<g opacity="0.5">
<path d="M747.996 289.972C747.786 289.962 747.626 289.772 747.636 289.562L747.786 287.392C747.796 287.182 747.986 287.022 748.196 287.032C748.406 287.042 748.566 287.232 748.556 287.442L748.406 289.612C748.386 289.822 748.206 289.982 747.996 289.972Z" fill="#64748B"/>
<path d="M747.716 294.112C747.506 294.102 747.346 293.912 747.356 293.702L747.506 291.532C747.516 291.322 747.706 291.162 747.916 291.172C748.126 291.182 748.286 291.372 748.276 291.582L748.126 293.752C748.116 293.962 747.926 294.132 747.716 294.112Z" fill="#64748B"/>
<path d="M751.086 291.172L748.916 291.022C748.706 291.012 748.546 290.822 748.556 290.612C748.576 290.402 748.756 290.242 748.966 290.252L751.136 290.402C751.346 290.412 751.506 290.602 751.496 290.812C751.476 291.022 751.296 291.182 751.086 291.172Z" fill="#64748B"/>
<path d="M746.946 290.882L744.776 290.732C744.566 290.722 744.396 290.532 744.416 290.322C744.426 290.112 744.616 289.942 744.826 289.962L746.996 290.112C747.206 290.122 747.366 290.312 747.356 290.522C747.346 290.732 747.156 290.892 746.946 290.882Z" fill="#64748B"/>
</g>
<g opacity="0.5">
<path d="M772.365 300.942C772.155 300.932 771.995 300.742 772.005 300.532L772.155 298.362C772.165 298.152 772.355 297.992 772.565 298.002C772.775 298.012 772.935 298.202 772.925 298.412L772.775 300.582C772.765 300.792 772.575 300.962 772.365 300.942Z" fill="#64748B"/>
<path d="M772.086 305.082C771.876 305.072 771.716 304.882 771.726 304.672L771.876 302.502C771.886 302.292 772.076 302.122 772.286 302.142C772.496 302.152 772.656 302.342 772.646 302.552L772.496 304.722C772.486 304.932 772.296 305.092 772.086 305.082Z" fill="#64748B"/>
<path d="M775.456 302.152L773.286 302.002C773.076 301.992 772.916 301.802 772.926 301.592C772.936 301.382 773.126 301.222 773.336 301.232L775.506 301.382C775.716 301.392 775.876 301.582 775.866 301.792C775.856 302.002 775.666 302.162 775.456 302.152Z" fill="#64748B"/>
<path d="M771.316 301.862L769.146 301.712C768.936 301.702 768.776 301.512 768.786 301.302C768.796 301.092 768.986 300.932 769.196 300.942L771.366 301.092C771.576 301.102 771.736 301.292 771.726 301.502C771.716 301.712 771.526 301.882 771.316 301.862Z" fill="#64748B"/>
</g>
<g style="mix-blend-mode:soft-light">
<path d="M761.706 319.802C761.336 319.772 761.056 319.452 761.086 319.082L761.346 315.312C761.376 314.942 761.696 314.662 762.066 314.692C762.436 314.722 762.716 315.042 762.686 315.412L762.426 319.182C762.396 319.552 762.076 319.832 761.706 319.802Z" fill="#64748B"/>
<path d="M761.216 326.972C760.846 326.942 760.566 326.622 760.596 326.252L760.856 322.482C760.886 322.112 761.206 321.832 761.576 321.862C761.946 321.892 762.226 322.212 762.196 322.582L761.936 326.352C761.906 326.722 761.586 327.002 761.216 326.972Z" fill="#64748B"/>
<path d="M767.066 321.882L763.296 321.622C762.926 321.592 762.646 321.272 762.676 320.902C762.706 320.532 763.026 320.252 763.396 320.282L767.166 320.542C767.536 320.572 767.816 320.892 767.786 321.262C767.756 321.632 767.436 321.912 767.066 321.882Z" fill="#64748B"/>
<path d="M759.886 321.382L756.116 321.122C755.746 321.092 755.466 320.772 755.496 320.402C755.526 320.032 755.846 319.752 756.216 319.782L759.986 320.042C760.356 320.072 760.636 320.392 760.606 320.762C760.576 321.132 760.256 321.412 759.886 321.382Z" fill="#64748B"/>
</g>
<path d="M705.896 228.512C705.526 228.482 705.246 228.162 705.276 227.792L705.496 224.622C705.526 224.252 705.846 223.972 706.216 224.002C706.586 224.032 706.866 224.352 706.836 224.722L706.616 227.892C706.586 228.262 706.266 228.542 705.896 228.512Z" fill="#64748B"/>
<path d="M705.475 234.552C705.105 234.522 704.825 234.202 704.855 233.832L705.075 230.662C705.105 230.292 705.425 230.012 705.795 230.042C706.165 230.072 706.445 230.392 706.415 230.762L706.195 233.932C706.165 234.302 705.845 234.582 705.475 234.552Z" fill="#64748B"/>
<path d="M710.405 230.262L707.235 230.042C706.865 230.012 706.585 229.692 706.615 229.322C706.645 228.952 706.965 228.672 707.335 228.702L710.505 228.922C710.875 228.952 711.155 229.272 711.125 229.642C711.095 230.012 710.775 230.292 710.405 230.262Z" fill="#64748B"/>
<path d="M704.365 229.852L701.195 229.632C700.825 229.602 700.545 229.282 700.575 228.912C700.605 228.542 700.925 228.262 701.295 228.292L704.465 228.512C704.835 228.542 705.115 228.862 705.085 229.232C705.055 229.602 704.735 229.882 704.365 229.852Z" fill="#64748B"/>
<g style="mix-blend-mode:soft-light">
<path d="M662.146 250.692C661.776 250.662 661.496 250.342 661.526 249.972L661.786 246.202C661.816 245.832 662.136 245.552 662.506 245.582C662.876 245.612 663.156 245.932 663.126 246.302L662.866 250.072C662.836 250.442 662.516 250.722 662.146 250.692Z" fill="#FFFF00"/>
<path d="M661.656 257.862C661.286 257.832 661.006 257.512 661.036 257.142L661.296 253.372C661.326 253.002 661.646 252.722 662.016 252.752C662.386 252.782 662.666 253.102 662.636 253.472L662.376 257.242C662.346 257.612 662.026 257.892 661.656 257.862Z" fill="#FFFF00"/>
<path d="M667.506 252.772L663.736 252.512C663.366 252.482 663.086 252.162 663.116 251.792C663.146 251.422 663.466 251.142 663.836 251.172L667.606 251.432C667.976 251.462 668.256 251.782 668.226 252.152C668.196 252.522 667.876 252.802 667.506 252.772Z" fill="#FFFF00"/>
<path d="M660.326 252.282L656.556 252.022C656.186 251.992 655.906 251.672 655.936 251.302C655.966 250.932 656.286 250.652 656.656 250.682L660.426 250.942C660.796 250.972 661.076 251.292 661.046 251.662C661.016 252.032 660.696 252.312 660.326 252.282Z" fill="#FFFF00"/>
</g>
<g style="mix-blend-mode:soft-light">
<path d="M667.356 325.422C666.986 325.392 666.706 325.072 666.736 324.702L666.996 320.932C667.026 320.562 667.346 320.282 667.716 320.312C668.086 320.342 668.366 320.662 668.336 321.032L668.076 324.802C668.046 325.172 667.726 325.452 667.356 325.422Z" fill="#FFFF00"/>
<path d="M666.856 332.592C666.486 332.562 666.206 332.242 666.236 331.872L666.496 328.102C666.526 327.732 666.846 327.452 667.216 327.482C667.586 327.512 667.866 327.832 667.836 328.202L667.576 331.972C667.546 332.342 667.226 332.622 666.856 332.592Z" fill="#FFFF00"/>
<path d="M672.706 327.502L668.936 327.242C668.566 327.212 668.286 326.892 668.316 326.522C668.346 326.152 668.666 325.872 669.036 325.902L672.806 326.162C673.176 326.192 673.456 326.512 673.426 326.882C673.396 327.252 673.076 327.532 672.706 327.502Z" fill="#FFFF00"/>
<path d="M665.536 327.002L661.766 326.742C661.396 326.712 661.116 326.392 661.146 326.022C661.176 325.652 661.496 325.372 661.866 325.402L665.636 325.662C666.006 325.692 666.286 326.012 666.256 326.382C666.226 326.752 665.906 327.032 665.536 327.002Z" fill="#FFFF00"/>
</g>
<path d="M743.615 244.072C743.245 244.042 742.965 243.722 742.995 243.352L743.255 239.582C743.285 239.212 743.605 238.932 743.975 238.962C744.345 238.992 744.625 239.312 744.595 239.682L744.335 243.452C744.305 243.822 743.985 244.102 743.615 244.072Z" fill="#FFFF00"/>
<path d="M743.126 251.252C742.756 251.222 742.476 250.902 742.506 250.532L742.766 246.762C742.796 246.392 743.116 246.112 743.486 246.142C743.856 246.172 744.136 246.492 744.106 246.862L743.846 250.632C743.816 251.002 743.496 251.282 743.126 251.252Z" fill="#FFFF00"/>
<path d="M748.976 246.152L745.206 245.892C744.836 245.862 744.556 245.542 744.586 245.172C744.616 244.802 744.936 244.522 745.306 244.552L749.076 244.812C749.446 244.842 749.726 245.162 749.696 245.532C749.666 245.902 749.346 246.182 748.976 246.152Z" fill="#FFFF00"/>
<path d="M741.796 245.662L738.026 245.402C737.656 245.372 737.376 245.052 737.406 244.682C737.436 244.312 737.756 244.032 738.126 244.062L741.896 244.322C742.266 244.352 742.546 244.672 742.516 245.042C742.486 245.412 742.166 245.692 741.796 245.662Z" fill="#FFFF00"/>
<path d="M764.056 281.272C763.686 281.242 763.406 280.922 763.436 280.552L763.646 277.552C763.676 277.182 763.996 276.902 764.366 276.932C764.736 276.962 765.016 277.282 764.986 277.652L764.776 280.652C764.746 281.022 764.426 281.302 764.056 281.272Z" fill="#64748B"/>
<path d="M763.655 286.982C763.285 286.952 763.005 286.632 763.035 286.262L763.245 283.262C763.275 282.892 763.595 282.612 763.965 282.642C764.335 282.672 764.615 282.992 764.585 283.362L764.375 286.362C764.345 286.732 764.025 287.012 763.655 286.982Z" fill="#64748B"/>
<path d="M768.316 282.933L765.316 282.723C764.946 282.693 764.666 282.373 764.696 282.003C764.726 281.633 765.046 281.353 765.416 281.383L768.416 281.593C768.786 281.623 769.066 281.943 769.036 282.313C769.006 282.683 768.686 282.963 768.316 282.933Z" fill="#64748B"/>
<path d="M762.606 282.542L759.606 282.332C759.236 282.302 758.956 281.982 758.986 281.612C759.016 281.242 759.336 280.962 759.706 280.992L762.706 281.202C763.076 281.232 763.356 281.552 763.326 281.922C763.296 282.292 762.976 282.572 762.606 282.542Z" fill="#64748B"/>
<path d="M652.995 466.777C653.618 465.687 654.67 464.947 656.15 464.557C657.708 464.09 659.695 463.856 662.11 463.856C664.604 463.856 666.59 464.128 668.071 464.674C669.551 465.141 670.603 465.959 671.226 467.128C671.849 468.219 672.2 469.232 672.278 470.167C672.434 471.102 672.512 472.465 672.512 474.257V539.236C672.512 542.275 672.122 544.534 671.343 546.015C670.642 547.417 669.512 548.352 667.954 548.82C666.474 549.287 664.604 549.521 662.344 549.521C660.085 549.521 658.293 549.326 656.968 548.936C655.644 548.547 654.631 548.079 653.93 547.534C653.228 546.989 652.722 546.21 652.41 545.197C651.943 543.872 651.709 541.846 651.709 539.119V524.861H620.038C614.584 524.861 611.35 523.381 610.337 520.42C609.948 519.174 609.753 517.499 609.753 515.395C609.753 513.291 609.87 511.733 610.104 510.72L619.804 471.569C620.271 469.777 620.661 468.414 620.972 467.479C621.362 466.544 622.063 465.648 623.076 464.791C624.167 463.934 625.53 463.505 627.167 463.505C628.803 463.505 630.595 463.778 632.543 464.323C637.996 465.804 640.723 468.297 640.723 471.803C640.723 473.049 640.451 474.686 639.905 476.711C639.827 476.867 639.788 476.984 639.788 477.062L632.659 505.578H651.709V473.673C651.709 471.881 651.748 470.556 651.826 469.699C651.982 468.842 652.371 467.868 652.995 466.777ZM688.967 473.907C691.226 470.712 694.381 468.063 698.433 465.959C702.562 463.778 707.315 462.687 712.691 462.687C718.067 462.687 722.742 463.739 726.715 465.843C730.767 467.946 733.922 470.556 736.182 473.673C738.519 476.789 740.389 480.451 741.791 484.658C744.129 491.671 745.297 499.111 745.297 506.98C745.297 521.083 742.259 532.263 736.182 540.522C733.922 543.638 730.767 546.21 726.715 548.235C722.742 550.261 718.106 551.274 712.808 551.274C707.51 551.274 702.796 550.261 698.667 548.235C694.615 546.132 691.421 543.561 689.083 540.522C686.824 537.483 684.954 533.86 683.474 529.653C681.214 522.953 680.085 515.356 680.085 506.864C680.085 499.072 680.98 492.411 682.772 486.879C684.642 481.347 686.707 477.023 688.967 473.907ZM712.574 530.471C720.599 530.471 724.612 522.836 724.612 507.565V506.864C724.612 491.203 720.638 483.373 712.691 483.373C704.744 483.373 700.77 491.242 700.77 506.98C700.77 522.641 704.705 530.471 712.574 530.471ZM793.26 466.777C793.884 465.687 794.935 464.947 796.416 464.557C797.974 464.09 799.961 463.856 802.376 463.856C804.869 463.856 806.856 464.128 808.336 464.674C809.817 465.141 810.869 465.959 811.492 467.128C812.115 468.219 812.466 469.232 812.544 470.167C812.7 471.102 812.777 472.465 812.777 474.257V539.236C812.777 542.275 812.388 544.534 811.609 546.015C810.908 547.417 809.778 548.352 808.22 548.82C806.739 549.287 804.869 549.521 802.61 549.521C800.35 549.521 798.558 549.326 797.234 548.936C795.909 548.547 794.897 548.079 794.195 547.534C793.494 546.989 792.988 546.21 792.676 545.197C792.209 543.872 791.975 541.846 791.975 539.119V524.861H760.303C754.849 524.861 751.616 523.381 750.603 520.42C750.214 519.174 750.019 517.499 750.019 515.395C750.019 513.291 750.136 511.733 750.369 510.72L760.07 471.569C760.537 469.777 760.927 468.414 761.238 467.479C761.628 466.544 762.329 465.648 763.342 464.791C764.433 463.934 765.796 463.505 767.432 463.505C769.068 463.505 770.86 463.778 772.808 464.323C778.262 465.804 780.989 468.297 780.989 471.803C780.989 473.049 780.716 474.686 780.171 476.711C780.093 476.867 780.054 476.984 780.054 477.062L772.925 505.578H791.975V473.673C791.975 471.881 792.014 470.556 792.092 469.699C792.247 468.842 792.637 467.868 793.26 466.777Z" fill="#EF4444"/>
<defs>
<linearGradient id="paint0_linear_1781_160574" x1="531.992" y1="388.645" x2="560.609" y2="360.028" gradientUnits="userSpaceOnUse">
<stop stop-color="#00FFFF"/>
<stop offset="0.08" stop-color="#00CCCC"/>
<stop offset="0.17" stop-color="#009C9C"/>
<stop offset="0.26" stop-color="#007272"/>
<stop offset="0.36" stop-color="#004F4F"/>
<stop offset="0.46" stop-color="#003232"/>
<stop offset="0.57" stop-color="#001C1C"/>
<stop offset="0.68" stop-color="#000C0C"/>
<stop offset="0.82" stop-color="#000202"/>
<stop offset="1"/>
</linearGradient>
<linearGradient id="paint1_linear_1781_160574" x1="532.961" y1="408.253" x2="561.585" y2="379.629" gradientUnits="userSpaceOnUse">
<stop stop-color="#00FFFF"/>
<stop offset="0.08" stop-color="#00CCCC"/>
<stop offset="0.17" stop-color="#009C9C"/>
<stop offset="0.26" stop-color="#007272"/>
<stop offset="0.36" stop-color="#004F4F"/>
<stop offset="0.46" stop-color="#003232"/>
<stop offset="0.57" stop-color="#001C1C"/>
<stop offset="0.68" stop-color="#000C0C"/>
<stop offset="0.82" stop-color="#000202"/>
<stop offset="1"/>
</linearGradient>
<linearGradient id="paint2_linear_1781_160574" x1="510.942" y1="392.768" x2="539.565" y2="364.144" gradientUnits="userSpaceOnUse">
<stop stop-color="#00FFFF"/>
<stop offset="0.08" stop-color="#00CCCC"/>
<stop offset="0.17" stop-color="#009C9C"/>
<stop offset="0.26" stop-color="#007272"/>
<stop offset="0.36" stop-color="#004F4F"/>
<stop offset="0.46" stop-color="#003232"/>
<stop offset="0.57" stop-color="#001C1C"/>
<stop offset="0.68" stop-color="#000C0C"/>
<stop offset="0.82" stop-color="#000202"/>
<stop offset="1"/>
</linearGradient>
<linearGradient id="paint3_linear_1781_160574" x1="519.646" y1="368.082" x2="548.27" y2="339.459" gradientUnits="userSpaceOnUse">
<stop stop-color="#00FFFF"/>
<stop offset="0.08" stop-color="#00CCCC"/>
<stop offset="0.17" stop-color="#009C9C"/>
<stop offset="0.26" stop-color="#007272"/>
<stop offset="0.36" stop-color="#004F4F"/>
<stop offset="0.46" stop-color="#003232"/>
<stop offset="0.57" stop-color="#001C1C"/>
<stop offset="0.68" stop-color="#000C0C"/>
<stop offset="0.82" stop-color="#000202"/>
<stop offset="1"/>
</linearGradient>
<linearGradient id="paint4_linear_1781_160574" x1="912.776" y1="330.556" x2="936.174" y2="307.158" gradientUnits="userSpaceOnUse">
<stop stop-color="#FF00A6"/>
<stop offset="0.08" stop-color="#CC0084"/>
<stop offset="0.17" stop-color="#9C0066"/>
<stop offset="0.26" stop-color="#72004A"/>
<stop offset="0.36" stop-color="#4F0033"/>
<stop offset="0.46" stop-color="#320020"/>
<stop offset="0.57" stop-color="#1C0012"/>
<stop offset="0.68" stop-color="#0C0007"/>
<stop offset="0.82" stop-color="#020001"/>
<stop offset="1"/>
</linearGradient>
<linearGradient id="paint5_linear_1781_160574" x1="913.561" y1="346.587" x2="936.966" y2="323.181" gradientUnits="userSpaceOnUse">
<stop stop-color="#FF00A6"/>
<stop offset="0.08" stop-color="#CC0084"/>
<stop offset="0.17" stop-color="#9C0066"/>
<stop offset="0.26" stop-color="#72004A"/>
<stop offset="0.36" stop-color="#4F0033"/>
<stop offset="0.46" stop-color="#320020"/>
<stop offset="0.57" stop-color="#1C0012"/>
<stop offset="0.68" stop-color="#0C0007"/>
<stop offset="0.82" stop-color="#020001"/>
<stop offset="1"/>
</linearGradient>
<linearGradient id="paint6_linear_1781_160574" x1="895.558" y1="333.93" x2="918.963" y2="310.524" gradientUnits="userSpaceOnUse">
<stop stop-color="#FF00A6"/>
<stop offset="0.08" stop-color="#CC0084"/>
<stop offset="0.17" stop-color="#9C0066"/>
<stop offset="0.26" stop-color="#72004A"/>
<stop offset="0.36" stop-color="#4F0033"/>
<stop offset="0.46" stop-color="#320020"/>
<stop offset="0.57" stop-color="#1C0012"/>
<stop offset="0.68" stop-color="#0C0007"/>
<stop offset="0.82" stop-color="#020001"/>
<stop offset="1"/>
</linearGradient>
<linearGradient id="paint7_linear_1781_160574" x1="902.679" y1="313.742" x2="926.084" y2="290.336" gradientUnits="userSpaceOnUse">
<stop stop-color="#FF00A6"/>
<stop offset="0.08" stop-color="#CC0084"/>
<stop offset="0.17" stop-color="#9C0066"/>
<stop offset="0.26" stop-color="#72004A"/>
<stop offset="0.36" stop-color="#4F0033"/>
<stop offset="0.46" stop-color="#320020"/>
<stop offset="0.57" stop-color="#1C0012"/>
<stop offset="0.68" stop-color="#0C0007"/>
<stop offset="0.82" stop-color="#020001"/>
<stop offset="1"/>
</linearGradient>
</defs>
</svg>
