<svg width="32" height="32" viewBox="0 0 32 32" fill="none" xmlns="http://www.w3.org/2000/svg">
<rect width="32" height="32" rx="8" fill="#DCFCE7"/>
<path fill-rule="evenodd" clip-rule="evenodd" d="M22.7074 11.2928C22.8949 11.4803 23.0002 11.7346 23.0002 11.9998C23.0002 12.265 22.8949 12.5193 22.7074 12.7068L14.7074 20.7068C14.5199 20.8943 14.2656 20.9996 14.0004 20.9996C13.7352 20.9996 13.4809 20.8943 13.2934 20.7068L9.29341 16.7068C9.11125 16.5182 9.01045 16.2656 9.01273 16.0034C9.01501 15.7412 9.12018 15.4904 9.30559 15.305C9.491 15.1196 9.74181 15.0144 10.004 15.0121C10.2662 15.0098 10.5188 15.1106 10.7074 15.2928L14.0004 18.5858L21.2934 11.2928C21.4809 11.1053 21.7352 11 22.0004 11C22.2656 11 22.5199 11.1053 22.7074 11.2928Z" fill="#22C55E"/>
</svg>
