<svg width="25" height="25" viewBox="0 0 25 25" fill="none" xmlns="http://www.w3.org/2000/svg">
<path d="M21.7699 9.68029C21.4799 9.22029 21.1699 8.79029 20.8499 8.39029C20.4799 7.92029 19.7799 7.88029 19.3599 8.30029L16.3599 11.3003C16.5799 11.9603 16.6199 12.7203 16.4199 13.5103C16.0699 14.9203 14.9299 16.0603 13.5199 16.4103C12.7299 16.6103 11.9699 16.5703 11.3099 16.3503C11.3099 16.3503 9.87995 17.7803 8.84995 18.8103C8.34995 19.3103 8.50995 20.1903 9.17995 20.4503C10.2499 20.8603 11.3599 21.0703 12.4999 21.0703C14.2799 21.0703 16.0099 20.5503 17.5899 19.5803C19.1999 18.5803 20.6499 17.1103 21.8199 15.2403C22.7699 13.7303 22.7199 11.1903 21.7699 9.68029Z" fill="#999999"/>
<path d="M14.5199 10.4796L10.4799 14.5196C9.96989 13.9996 9.63989 13.2796 9.63989 12.4996C9.63989 10.9296 10.9199 9.63965 12.4999 9.63965C13.2799 9.63965 13.9999 9.96965 14.5199 10.4796Z" fill="#999999"/>
<path d="M18.75 6.24969L15.36 9.63969C14.63 8.89969 13.62 8.45969 12.5 8.45969C10.26 8.45969 8.46 10.2697 8.46 12.4997C8.46 13.6197 8.91 14.6297 9.64 15.3597L6.26 18.7497H6.25C5.14 17.8497 4.12 16.6997 3.25 15.3397C2.25 13.7697 2.25 11.2197 3.25 9.64969C4.41 7.82969 5.83 6.39969 7.41 5.41969C8.99 4.45969 10.72 3.92969 12.5 3.92969C14.73 3.92969 16.89 4.74969 18.75 6.24969Z" fill="#999999"/>
<path d="M15.3601 12.5001C15.3601 14.0701 14.0801 15.3601 12.5001 15.3601C12.4401 15.3601 12.3901 15.3601 12.3301 15.3401L15.3401 12.3301C15.3601 12.3901 15.3601 12.4401 15.3601 12.5001Z" fill="#999999"/>
<path d="M22.2699 2.72988C21.9699 2.42988 21.4799 2.42988 21.1799 2.72988L2.72988 21.1899C2.42988 21.4899 2.42988 21.9799 2.72988 22.2799C2.87988 22.4199 3.06988 22.4999 3.26988 22.4999C3.46988 22.4999 3.65988 22.4199 3.80988 22.2699L22.2699 3.80988C22.5799 3.50988 22.5799 3.02988 22.2699 2.72988Z" fill="#999999"/>
</svg>
