<svg width="25" height="25" viewBox="0 0 25 25" fill="none" xmlns="http://www.w3.org/2000/svg">
<path d="M21.75 9.64969C19.44 6.01969 16.06 3.92969 12.5 3.92969C10.72 3.92969 8.99 4.44969 7.41 5.41969C5.83 6.39969 4.41 7.82969 3.25 9.64969C2.25 11.2197 2.25 13.7697 3.25 15.3397C5.56 18.9797 8.94 21.0597 12.5 21.0597C14.28 21.0597 16.01 20.5397 17.59 19.5697C19.17 18.5897 20.59 17.1597 21.75 15.3397C22.75 13.7797 22.75 11.2197 21.75 9.64969ZM12.5 16.5397C10.26 16.5397 8.46 14.7297 8.46 12.4997C8.46 10.2697 10.26 8.45969 12.5 8.45969C14.74 8.45969 16.54 10.2697 16.54 12.4997C16.54 14.7297 14.74 16.5397 12.5 16.5397Z" fill="#999999"/>
<path d="M12.4999 9.63965C10.9299 9.63965 9.6499 10.9196 9.6499 12.4996C9.6499 14.0696 10.9299 15.3496 12.4999 15.3496C14.0699 15.3496 15.3599 14.0696 15.3599 12.4996C15.3599 10.9296 14.0699 9.63965 12.4999 9.63965Z" fill="#999999"/>
</svg>
